<?xml version="1.0" encoding="UTF-8" standalone="no"?>
<svg
   xmlns:dc="http://purl.org/dc/elements/1.1/"
   xmlns:cc="http://creativecommons.org/ns#"
   xmlns:rdf="http://www.w3.org/1999/02/22-rdf-syntax-ns#"
   xmlns:svg="http://www.w3.org/2000/svg"
   xmlns="http://www.w3.org/2000/svg"
   xmlns:sodipodi="http://sodipodi.sourceforge.net/DTD/sodipodi-0.dtd"
   xmlns:inkscape="http://www.inkscape.org/namespaces/inkscape"
   width="9.8131104mm"
   height="15.610601mm"
   viewBox="0 0 9.8131104 15.610601"
   version="1.1"
   id="svg221"
   inkscape:version="1.0.1 (0767f8302a, 2020-10-17)"
   sodipodi:docname="gps_icon.svg">
  <defs
     id="defs215" />
  <sodipodi:namedview
     id="base"
     pagecolor="#ffffff"
     bordercolor="#666666"
     borderopacity="1.0"
     inkscape:pageopacity="0.0"
     inkscape:pageshadow="2"
     inkscape:zoom="0.35"
     inkscape:cx="95.687315"
     inkscape:cy="118.07178"
     inkscape:document-units="mm"
     inkscape:current-layer="layer1"
     inkscape:document-rotation="0"
     showgrid="false"
     inkscape:window-width="1208"
     inkscape:window-height="547"
     inkscape:window-x="79"
     inkscape:window-y="94"
     inkscape:window-maximized="0" />
  <metadata
     id="metadata218">
    <rdf:RDF>
      <cc:Work
         rdf:about="">
        <dc:format>image/svg+xml</dc:format>
        <dc:type
           rdf:resource="http://purl.org/dc/dcmitype/StillImage" />
        <dc:title></dc:title>
      </cc:Work>
    </rdf:RDF>
  </metadata>
  <g
     inkscape:label="Layer 1"
     inkscape:groupmode="layer"
     id="layer1"
     transform="translate(-80.516065,-116.92684)">
    <g
       id="g1768"
       transform="translate(20.649007,61.662067)">
      <path
         id="path1750"
         style="fill:#c83737;fill-opacity:1;stroke:#c83737;stroke-width:0;stroke-miterlimit:4;stroke-dasharray:none;stroke-opacity:1"
         d="m 64.773613,55.264776 c -2.709831,0 -4.906555,1.35209 -4.906555,4.061919 0,2.70983 3.540267,8.660562 4.906555,8.660562 1.366291,0 4.906554,-5.950732 4.906554,-8.660562 0,-2.709829 -2.196724,-4.061919 -4.906554,-4.061919 z m -0.01256,2.689389 a 2.056154,2.056154 0 0 1 0.01256,0 2.056154,2.056154 0 0 1 2.056251,2.056249 2.056154,2.056154 0 0 1 -2.056251,2.055913 2.056154,2.056154 0 0 1 -2.056251,-2.055913 2.056154,2.056154 0 0 1 2.043691,-2.056249 z" />
      <text
         xml:space="preserve"
         style="font-weight:500;font-size:2.82222px;line-height:1.25;font-family:Roboto;-inkscape-font-specification:'Roboto Medium';fill:#666666;fill-opacity:1;stroke-width:0.264583"
         x="62.036827"
         y="70.847816"
         id="text1763"><tspan
           sodipodi:role="line"
           id="tspan1761"
           x="62.036827"
           y="70.847816"
           style="font-size:2.82222px;fill:#666666;fill-opacity:1;stroke-width:0.264583">GPS</tspan></text>
    </g>
  </g>
</svg>
