<?xml version="1.0" encoding="UTF-8" standalone="no"?>
<svg
   xmlns:dc="http://purl.org/dc/elements/1.1/"
   xmlns:cc="http://creativecommons.org/ns#"
   xmlns:rdf="http://www.w3.org/1999/02/22-rdf-syntax-ns#"
   xmlns:svg="http://www.w3.org/2000/svg"
   xmlns="http://www.w3.org/2000/svg"
   xmlns:sodipodi="http://sodipodi.sourceforge.net/DTD/sodipodi-0.dtd"
   xmlns:inkscape="http://www.inkscape.org/namespaces/inkscape"
   width="66.914261mm"
   height="73.13839mm"
   viewBox="0 0 66.914261 73.13839"
   version="1.1"
   id="svg97"
   inkscape:version="1.0.1 (0767f8302a, 2020-10-17)"
   sodipodi:docname="ticket_major.svg">
  <defs
     id="defs91" />
  <sodipodi:namedview
     id="base"
     pagecolor="#ffffff"
     bordercolor="#666666"
     borderopacity="1.0"
     inkscape:pageopacity="0.0"
     inkscape:pageshadow="2"
     inkscape:zoom="0.35"
     inkscape:cx="-47.833575"
     inkscape:cy="178.21427"
     inkscape:document-units="mm"
     inkscape:current-layer="layer1"
     inkscape:document-rotation="0"
     showgrid="false"
     inkscape:window-width="1208"
     inkscape:window-height="547"
     inkscape:window-x="79"
     inkscape:window-y="94"
     inkscape:window-maximized="0" />
  <metadata
     id="metadata94">
    <rdf:RDF>
      <cc:Work
         rdf:about="">
        <dc:format>image/svg+xml</dc:format>
        <dc:type
           rdf:resource="http://purl.org/dc/dcmitype/StillImage" />
        <dc:title></dc:title>
      </cc:Work>
    </rdf:RDF>
  </metadata>
  <g
     inkscape:label="Layer 1"
     inkscape:groupmode="layer"
     id="layer1"
     transform="translate(-118.4893,-101.01414)">
    <g
       id="g109">
      <path
         id="rect2006-9"
         style="fill:#f9f9f9;fill-opacity:1;stroke-width:0.41261"
         d="m 122.72264,148.88673 a 4.2333333,4.2333333 0 0 1 -4.23334,4.23336 v 14.18579 c 0,3.79304 3.0536,6.84665 6.84662,6.84665 h 53.22103 c 3.79302,0 6.84661,-3.05361 6.84661,-6.84665 v -14.18579 a 4.2333333,4.2333333 0 0 1 -4.23333,-4.23336 h -1.1777 a 1.0583335,1.0583335 0 0 1 -1.05834,1.05835 1.0583335,1.0583335 0 0 1 -1.05833,-1.05835 h -1.05833 a 1.0583335,1.0583335 0 0 1 -1.05834,1.05835 1.0583335,1.0583335 0 0 1 -1.05833,-1.05835 h -1.05833 a 1.0583336,1.0583336 0 0 1 -1.05834,1.05835 1.0583336,1.0583336 0 0 1 -1.05833,-1.05835 h -1.05833 a 1.0583336,1.0583336 0 0 1 -1.05834,1.05835 1.0583336,1.0583336 0 0 1 -1.05833,-1.05835 h -1.05833 a 1.0583336,1.0583336 0 0 1 -1.05834,1.05835 1.0583336,1.0583336 0 0 1 -1.05833,-1.05835 h -1.05833 a 1.0583336,1.0583336 0 0 1 -1.05885,1.05835 1.0583336,1.0583336 0 0 1 -1.05782,-1.05835 h -1.05885 a 1.0583337,1.0583337 0 0 1 -1.05833,1.05835 1.0583337,1.0583337 0 0 1 -1.05834,-1.05835 h -1.05781 a 1.0583337,1.0583337 0 0 1 -1.05885,1.05835 1.0583337,1.0583337 0 0 1 -1.05782,-1.05835 h -1.05885 a 1.0583337,1.0583337 0 0 1 -1.05833,1.05835 1.0583337,1.0583337 0 0 1 -1.05834,-1.05835 h -1.05833 a 1.0583337,1.0583337 0 0 1 -1.05833,1.05835 1.0583337,1.0583337 0 0 1 -1.05834,-1.05835 h -1.05781 a 1.0583338,1.0583338 0 0 1 -1.05885,1.05835 1.0583338,1.0583338 0 0 1 -1.05833,-1.05835 h -1.05834 a 1.0583338,1.0583338 0 0 1 -1.05833,1.05835 1.0583338,1.0583338 0 0 1 -1.05834,-1.05835 h -1.05833 a 1.0583338,1.0583338 0 0 1 -1.05833,1.05835 1.0583338,1.0583338 0 0 1 -1.05833,-1.05835 h -1.05834 a 1.0583338,1.0583338 0 0 1 -1.05833,1.05835 1.0583338,1.0583338 0 0 1 -1.05834,-1.05835 h -1.05833 a 1.0583339,1.0583339 0 0 1 -1.05833,1.05835 1.0583339,1.0583339 0 0 1 -1.05834,-1.05835 h -1.05833 a 1.0583339,1.0583339 0 0 1 -1.05833,1.05835 1.0583339,1.0583339 0 0 1 -1.05834,-1.05835 h -1.05833 a 1.0583339,1.0583339 0 0 1 -1.05833,1.05835 1.0583339,1.0583339 0 0 1 -1.05834,-1.05835 h -1.05833 a 1.058334,1.058334 0 0 1 -1.05833,1.05835 1.058334,1.058334 0 0 1 -1.05834,-1.05835 z" />
      <path
         id="path2015-7"
         style="fill:#ffc130;fill-opacity:1;stroke-width:0.41261"
         d="m 125.33591,101.01414 c -3.79302,0 -6.8466,3.05359 -6.8466,6.84661 v 36.26346 a 4.2333333,4.2333333 0 0 1 4.23333,4.23336 h 1.1777 a 1.058334,1.058334 0 0 1 1.05834,-1.05835 1.058334,1.058334 0 0 1 1.05833,1.05835 h 1.05833 a 1.0583339,1.0583339 0 0 1 1.05834,-1.05835 1.0583339,1.0583339 0 0 1 1.05833,1.05835 h 1.05833 a 1.0583339,1.0583339 0 0 1 1.05834,-1.05835 1.0583339,1.0583339 0 0 1 1.05833,1.05835 h 1.05833 a 1.0583339,1.0583339 0 0 1 1.05834,-1.05835 1.0583339,1.0583339 0 0 1 1.05833,1.05835 h 1.05833 a 1.0583338,1.0583338 0 0 1 1.05834,-1.05835 1.0583338,1.0583338 0 0 1 1.05833,1.05835 h 1.05833 a 1.0583338,1.0583338 0 0 1 1.05834,-1.05835 1.0583338,1.0583338 0 0 1 1.05833,1.05835 h 1.05833 a 1.0583338,1.0583338 0 0 1 1.05834,-1.05835 1.0583338,1.0583338 0 0 1 1.05833,1.05835 h 1.05833 a 1.0583338,1.0583338 0 0 1 1.05834,-1.05835 1.0583338,1.0583338 0 0 1 1.05885,1.05835 h 1.05781 a 1.0583337,1.0583337 0 0 1 1.05834,-1.05835 1.0583337,1.0583337 0 0 1 1.05833,1.05835 h 1.05833 a 1.0583337,1.0583337 0 0 1 1.05834,-1.05835 1.0583337,1.0583337 0 0 1 1.05833,1.05835 h 1.05885 a 1.0583337,1.0583337 0 0 1 1.05782,-1.05835 1.0583337,1.0583337 0 0 1 1.05885,1.05835 h 1.05781 a 1.0583337,1.0583337 0 0 1 1.05834,-1.05835 1.0583337,1.0583337 0 0 1 1.05833,1.05835 h 1.05885 a 1.0583336,1.0583336 0 0 1 1.05782,-1.05835 1.0583336,1.0583336 0 0 1 1.05885,1.05835 h 1.05833 a 1.0583336,1.0583336 0 0 1 1.05833,-1.05835 1.0583336,1.0583336 0 0 1 1.05834,1.05835 h 1.05833 a 1.0583336,1.0583336 0 0 1 1.05833,-1.05835 1.0583336,1.0583336 0 0 1 1.05834,1.05835 h 1.05833 a 1.0583336,1.0583336 0 0 1 1.05833,-1.05835 1.0583336,1.0583336 0 0 1 1.05834,1.05835 h 1.05833 a 1.0583335,1.0583335 0 0 1 1.05833,-1.05835 1.0583335,1.0583335 0 0 1 1.05834,1.05835 h 1.05833 a 1.0583335,1.0583335 0 0 1 1.05833,-1.05835 1.0583335,1.0583335 0 0 1 1.05834,1.05835 h 1.1777 a 4.2333333,4.2333333 0 0 1 4.23333,-4.23336 v -36.26346 c 0,-3.79302 -3.05359,-6.84661 -6.84661,-6.84661 z" />
    </g>
  </g>
</svg>
