<?xml version="1.0" encoding="UTF-8" standalone="no"?>
<svg
   xmlns:dc="http://purl.org/dc/elements/1.1/"
   xmlns:cc="http://creativecommons.org/ns#"
   xmlns:rdf="http://www.w3.org/1999/02/22-rdf-syntax-ns#"
   xmlns:svg="http://www.w3.org/2000/svg"
   xmlns="http://www.w3.org/2000/svg"
   xmlns:sodipodi="http://sodipodi.sourceforge.net/DTD/sodipodi-0.dtd"
   xmlns:inkscape="http://www.inkscape.org/namespaces/inkscape"
   width="66.914261mm"
   height="25.265787mm"
   viewBox="0 0 66.914261 25.265787"
   version="1.1"
   id="svg1622"
   inkscape:version="1.0.1 (0767f8302a, 2020-10-17)"
   sodipodi:docname="barcode_bg.svg">
  <defs
     id="defs1616" />
  <sodipodi:namedview
     id="base"
     pagecolor="#ffffff"
     bordercolor="#666666"
     borderopacity="1.0"
     inkscape:pageopacity="0.0"
     inkscape:pageshadow="2"
     inkscape:zoom="0.35"
     inkscape:cx="152.16643"
     inkscape:cy="239.17495"
     inkscape:document-units="mm"
     inkscape:current-layer="layer1"
     inkscape:document-rotation="0"
     showgrid="false"
     inkscape:window-width="1208"
     inkscape:window-height="547"
     inkscape:window-x="79"
     inkscape:window-y="94"
     inkscape:window-maximized="0" />
  <metadata
     id="metadata1619">
    <rdf:RDF>
      <cc:Work
         rdf:about="">
        <dc:format>image/svg+xml</dc:format>
        <dc:type
           rdf:resource="http://purl.org/dc/dcmitype/StillImage" />
        <dc:title></dc:title>
      </cc:Work>
    </rdf:RDF>
  </metadata>
  <g
     inkscape:label="Layer 1"
     inkscape:groupmode="layer"
     id="layer1"
     transform="translate(-65.572632,-84.884962)">
    <path
       id="rect2006-9"
       style="fill:#f9f9f9;fill-opacity:1;stroke-width:0.41261"
       d="m 69.805972,84.884962 a 4.2333333,4.2333333 0 0 1 -4.23334,4.23336 V 103.3041 c 0,3.79304 3.0536,6.84665 6.84662,6.84665 h 53.221028 c 3.79302,0 6.84661,-3.05361 6.84661,-6.84665 V 89.118322 a 4.2333333,4.2333333 0 0 1 -4.23333,-4.23336 h -1.1777 a 1.0583335,1.0583335 0 0 1 -1.05834,1.05834 1.0583335,1.0583335 0 0 1 -1.05833,-1.05834 h -1.05833 a 1.0583335,1.0583335 0 0 1 -1.05834,1.05834 1.0583335,1.0583335 0 0 1 -1.05833,-1.05834 h -1.05833 a 1.0583336,1.0583336 0 0 1 -1.05834,1.05834 1.0583336,1.0583336 0 0 1 -1.05833,-1.05834 h -1.05833 a 1.0583336,1.0583336 0 0 1 -1.05834,1.05834 1.0583336,1.0583336 0 0 1 -1.05833,-1.05834 h -1.05833 a 1.0583336,1.0583336 0 0 1 -1.05834,1.05834 1.0583336,1.0583336 0 0 1 -1.05833,-1.05834 h -1.05833 a 1.0583336,1.0583336 0 0 1 -1.05885,1.05834 1.0583336,1.0583336 0 0 1 -1.05782,-1.05834 h -1.05885 a 1.0583337,1.0583337 0 0 1 -1.05833,1.05834 1.0583337,1.0583337 0 0 1 -1.05834,-1.05834 h -1.05781 a 1.0583337,1.0583337 0 0 1 -1.05885,1.05834 1.0583337,1.0583337 0 0 1 -1.05782,-1.05834 h -1.05885 a 1.0583337,1.0583337 0 0 1 -1.05833,1.05834 1.0583337,1.0583337 0 0 1 -1.058337,-1.05834 h -1.05833 a 1.0583337,1.0583337 0 0 1 -1.058331,1.05834 1.0583337,1.0583337 0 0 1 -1.058339,-1.05834 h -1.057812 a 1.0583338,1.0583338 0 0 1 -1.058849,1.05834 1.0583338,1.0583338 0 0 1 -1.058331,-1.05834 h -1.058338 a 1.0583338,1.0583338 0 0 1 -1.058331,1.05834 1.0583338,1.0583338 0 0 1 -1.05834,-1.05834 h -1.05833 a 1.0583338,1.0583338 0 0 1 -1.05833,1.05834 1.0583338,1.0583338 0 0 1 -1.05833,-1.05834 h -1.05834 a 1.0583338,1.0583338 0 0 1 -1.05833,1.05834 1.0583338,1.0583338 0 0 1 -1.05834,-1.05834 h -1.05833 a 1.0583339,1.0583339 0 0 1 -1.05833,1.05834 1.0583339,1.0583339 0 0 1 -1.05834,-1.05834 h -1.05833 a 1.0583339,1.0583339 0 0 1 -1.05833,1.05834 1.0583339,1.0583339 0 0 1 -1.05834,-1.05834 h -1.05833 a 1.0583339,1.0583339 0 0 1 -1.05833,1.05834 1.0583339,1.0583339 0 0 1 -1.05834,-1.05834 h -1.05833 a 1.058334,1.058334 0 0 1 -1.05833,1.05834 1.058334,1.058334 0 0 1 -1.05834,-1.05834 z" />
  </g>
</svg>
