<?xml version="1.0" encoding="UTF-8" standalone="no"?>
<svg
   xmlns:dc="http://purl.org/dc/elements/1.1/"
   xmlns:cc="http://creativecommons.org/ns#"
   xmlns:rdf="http://www.w3.org/1999/02/22-rdf-syntax-ns#"
   xmlns:svg="http://www.w3.org/2000/svg"
   xmlns="http://www.w3.org/2000/svg"
   xmlns:sodipodi="http://sodipodi.sourceforge.net/DTD/sodipodi-0.dtd"
   xmlns:inkscape="http://www.inkscape.org/namespaces/inkscape"
   width="66.852562mm"
   height="25.261391mm"
   viewBox="0 0 66.852562 25.261391"
   version="1.1"
   id="svg145"
   inkscape:version="1.0.1 (0767f8302a, 2020-10-17)"
   sodipodi:docname="ticket_minor.svg">
  <defs
     id="defs139" />
  <sodipodi:namedview
     id="base"
     pagecolor="#ffffff"
     bordercolor="#666666"
     borderopacity="1.0"
     inkscape:pageopacity="0.0"
     inkscape:pageshadow="2"
     inkscape:zoom="0.35"
     inkscape:cx="163.47841"
     inkscape:cy="216.3095"
     inkscape:document-units="mm"
     inkscape:current-layer="layer1"
     inkscape:document-rotation="0"
     showgrid="false"
     inkscape:window-width="1208"
     inkscape:window-height="547"
     inkscape:window-x="79"
     inkscape:window-y="94"
     inkscape:window-maximized="0" />
  <metadata
     id="metadata142">
    <rdf:RDF>
      <cc:Work
         rdf:about="">
        <dc:format>image/svg+xml</dc:format>
        <dc:type
           rdf:resource="http://purl.org/dc/dcmitype/StillImage" />
        <dc:title></dc:title>
      </cc:Work>
    </rdf:RDF>
  </metadata>
  <g
     inkscape:label="Layer 1"
     inkscape:groupmode="layer"
     id="layer1"
     transform="translate(-62.579671,-90.934779)">
    <g
       id="g157">
      <path
         id="path1996"
         style="fill:#ffc130;fill-opacity:1;stroke-width:0.225609"
         d="m 66.196371,90.934779 c -2.00366,0 -3.6167,1.613033 -3.6167,3.6167 v 18.027991 c 0,2.00367 1.61304,3.6167 3.6167,3.6167 h 37.203989 a 3.6087701,3.6087701 0 0 1 3.60877,-3.60877 v -0.22555 a 0.90219255,0.90219255 0 0 1 -0.90219,-0.90219 0.90219255,0.90219255 0 0 1 0.90219,-0.9022 v -1.35329 a 0.90219255,0.90219255 0 0 1 -0.90219,-0.90219 0.90219255,0.90219255 0 0 1 0.90219,-0.90219 v -1.35329 a 0.90219265,0.90219265 0 0 1 -0.90219,-0.90219 0.90219265,0.90219265 0 0 1 0.90219,-0.90219 v -1.35329 a 0.90219265,0.90219265 0 0 1 -0.90219,-0.90219 0.90219265,0.90219265 0 0 1 0.90219,-0.90219 v -1.353293 a 0.90219265,0.90219265 0 0 1 -0.90219,-0.902193 0.90219265,0.90219265 0 0 1 0.90219,-0.902192 v -1.353289 a 0.90219273,0.90219273 0 0 1 -0.90219,-0.902193 0.90219273,0.90219273 0 0 1 0.90219,-0.902192 V 94.54355 a 3.6087701,3.6087701 0 0 1 -3.60877,-3.608771 z" />
      <path
         id="path1998"
         style="fill:#f9f9f9;fill-opacity:1;stroke-width:0.225609"
         d="m 111.069,90.934779 a 3.6087701,3.6087701 0 0 1 -3.60877,3.608771 v 0.225548 a 0.90219273,0.90219273 0 0 1 0.90219,0.902192 0.90219273,0.90219273 0 0 1 -0.90219,0.902193 v 1.353289 a 0.90219265,0.90219265 0 0 1 0.90219,0.902192 0.90219265,0.90219265 0 0 1 -0.90219,0.902193 v 1.353293 a 0.90219265,0.90219265 0 0 1 0.90219,0.90219 0.90219265,0.90219265 0 0 1 -0.90219,0.90219 v 1.35329 a 0.90219265,0.90219265 0 0 1 0.90219,0.90219 0.90219265,0.90219265 0 0 1 -0.90219,0.90219 v 1.35329 a 0.90219255,0.90219255 0 0 1 0.90219,0.90219 0.90219255,0.90219255 0 0 1 -0.90219,0.90219 v 1.35329 a 0.90219255,0.90219255 0 0 1 0.90219,0.9022 0.90219255,0.90219255 0 0 1 -0.90219,0.90219 v 0.22555 a 3.6087701,3.6087701 0 0 1 3.60877,3.60877 h 14.74653 c 2.00367,0 3.6167,-1.61303 3.6167,-3.6167 V 94.551479 c 0,-2.003667 -1.61303,-3.6167 -3.6167,-3.6167 z" />
    </g>
  </g>
</svg>
