<?xml version="1.0" encoding="UTF-8" standalone="no"?>
<svg
   xmlns:dc="http://purl.org/dc/elements/1.1/"
   xmlns:cc="http://creativecommons.org/ns#"
   xmlns:rdf="http://www.w3.org/1999/02/22-rdf-syntax-ns#"
   xmlns:svg="http://www.w3.org/2000/svg"
   xmlns="http://www.w3.org/2000/svg"
   xmlns:sodipodi="http://sodipodi.sourceforge.net/DTD/sodipodi-0.dtd"
   xmlns:inkscape="http://www.inkscape.org/namespaces/inkscape"
   width="320"
   height="568.00006"
   viewBox="0 0 84.666665 150.28335"
   version="1.1"
   id="svg3219"
   inkscape:version="1.0.1 (0767f8302a, 2020-10-17)"
   sodipodi:docname="estabelecimentos.svg"
   inkscape:export-filename="/home/filipe/Imagens/e-ticket/historico_senha.png"
   inkscape:export-xdpi="96"
   inkscape:export-ydpi="96">
  <defs
     id="defs3213" />
  <sodipodi:namedview
     id="base"
     pagecolor="#b4b4b4"
     bordercolor="#666666"
     borderopacity="1.0"
     inkscape:pageopacity="0"
     inkscape:pageshadow="2"
     inkscape:zoom="1.5334283"
     inkscape:cx="193.75349"
     inkscape:cy="460.54518"
     inkscape:document-units="px"
     inkscape:current-layer="layer11"
     inkscape:document-rotation="0"
     showgrid="false"
     inkscape:pagecheckerboard="true"
     units="px"
     inkscape:window-width="1366"
     inkscape:window-height="705"
     inkscape:window-x="0"
     inkscape:window-y="30"
     inkscape:window-maximized="1"
     inkscape:snap-intersection-paths="true"
     inkscape:object-paths="true" />
  <metadata
     id="metadata3216">
    <rdf:RDF>
      <cc:Work
         rdf:about="">
        <dc:format>image/svg+xml</dc:format>
        <dc:type
           rdf:resource="http://purl.org/dc/dcmitype/StillImage" />
        <dc:title />
      </cc:Work>
    </rdf:RDF>
  </metadata>
  <g
     inkscape:groupmode="layer"
     id="layer10"
     inkscape:label="pallet">
    <path
       id="rect2006-9"
       style="fill:#f9f9f9;fill-opacity:1;stroke-width:0.41261"
       d="m 123.09893,47.872594 a 4.2333332,4.2333332 0 0 1 -4.23334,4.23336 v 14.18578 c 0,3.79304 3.0536,6.84665 6.84662,6.84665 h 53.22103 c 3.79302,0 6.84661,-3.05361 6.84661,-6.84665 v -14.18578 a 4.2333332,4.2333332 0 0 1 -4.23333,-4.23336 h -1.1777 a 1.0583335,1.0583335 0 0 1 -1.05834,1.05834 1.0583335,1.0583335 0 0 1 -1.05833,-1.05834 h -1.05833 a 1.0583335,1.0583335 0 0 1 -1.05834,1.05834 1.0583335,1.0583335 0 0 1 -1.05833,-1.05834 h -1.05833 a 1.0583336,1.0583336 0 0 1 -1.05834,1.05834 1.0583336,1.0583336 0 0 1 -1.05833,-1.05834 h -1.05833 a 1.0583336,1.0583336 0 0 1 -1.05834,1.05834 1.0583336,1.0583336 0 0 1 -1.05833,-1.05834 h -1.05833 a 1.0583336,1.0583336 0 0 1 -1.05834,1.05834 1.0583336,1.0583336 0 0 1 -1.05833,-1.05834 h -1.05833 a 1.0583336,1.0583336 0 0 1 -1.05885,1.05834 1.0583336,1.0583336 0 0 1 -1.05782,-1.05834 h -1.05885 a 1.0583337,1.0583337 0 0 1 -1.05833,1.05834 1.0583337,1.0583337 0 0 1 -1.05834,-1.05834 h -1.05781 a 1.0583337,1.0583337 0 0 1 -1.05885,1.05834 1.0583337,1.0583337 0 0 1 -1.05782,-1.05834 h -1.05885 a 1.0583337,1.0583337 0 0 1 -1.05833,1.05834 1.0583337,1.0583337 0 0 1 -1.05834,-1.05834 h -1.05833 a 1.0583337,1.0583337 0 0 1 -1.05833,1.05834 1.0583337,1.0583337 0 0 1 -1.05834,-1.05834 h -1.05781 a 1.0583338,1.0583338 0 0 1 -1.05885,1.05834 1.0583338,1.0583338 0 0 1 -1.05833,-1.05834 h -1.05834 a 1.0583338,1.0583338 0 0 1 -1.05833,1.05834 1.0583338,1.0583338 0 0 1 -1.05834,-1.05834 h -1.05833 a 1.0583338,1.0583338 0 0 1 -1.05833,1.05834 1.0583338,1.0583338 0 0 1 -1.05833,-1.05834 h -1.05834 a 1.0583338,1.0583338 0 0 1 -1.05833,1.05834 1.0583338,1.0583338 0 0 1 -1.05834,-1.05834 h -1.05833 a 1.0583339,1.0583339 0 0 1 -1.05833,1.05834 1.0583339,1.0583339 0 0 1 -1.05834,-1.05834 h -1.05833 a 1.0583339,1.0583339 0 0 1 -1.05833,1.05834 1.0583339,1.0583339 0 0 1 -1.05834,-1.05834 h -1.05833 a 1.0583339,1.0583339 0 0 1 -1.05833,1.05834 1.0583339,1.0583339 0 0 1 -1.05834,-1.05834 h -1.05833 a 1.058334,1.058334 0 0 1 -1.05833,1.05834 1.058334,1.058334 0 0 1 -1.05834,-1.05834 z" />
    <path
       id="path2015-7"
       style="fill:#ffc130;fill-opacity:1;stroke-width:0.41261"
       d="m 125.7122,0 c -3.79302,0 -6.8466,3.053592 -6.8466,6.84661 v 36.263464 a 4.2333332,4.2333332 0 0 1 4.23333,4.23335 h 1.1777 a 1.058334,1.058334 0 0 1 1.05834,-1.05834 1.058334,1.058334 0 0 1 1.05833,1.05834 h 1.05833 a 1.0583339,1.0583339 0 0 1 1.05834,-1.05834 1.0583339,1.0583339 0 0 1 1.05833,1.05834 h 1.05833 a 1.0583339,1.0583339 0 0 1 1.05834,-1.05834 1.0583339,1.0583339 0 0 1 1.05833,1.05834 h 1.05833 a 1.0583339,1.0583339 0 0 1 1.05834,-1.05834 1.0583339,1.0583339 0 0 1 1.05833,1.05834 h 1.05833 a 1.0583338,1.0583338 0 0 1 1.05834,-1.05834 1.0583338,1.0583338 0 0 1 1.05833,1.05834 h 1.05833 a 1.0583338,1.0583338 0 0 1 1.05834,-1.05834 1.0583338,1.0583338 0 0 1 1.05833,1.05834 h 1.05833 a 1.0583338,1.0583338 0 0 1 1.05834,-1.05834 1.0583338,1.0583338 0 0 1 1.05833,1.05834 h 1.05833 a 1.0583338,1.0583338 0 0 1 1.05834,-1.05834 1.0583338,1.0583338 0 0 1 1.05885,1.05834 h 1.05781 a 1.0583337,1.0583337 0 0 1 1.05834,-1.05834 1.0583337,1.0583337 0 0 1 1.05833,1.05834 h 1.05833 a 1.0583337,1.0583337 0 0 1 1.05834,-1.05834 1.0583337,1.0583337 0 0 1 1.05833,1.05834 h 1.05885 a 1.0583337,1.0583337 0 0 1 1.05782,-1.05834 1.0583337,1.0583337 0 0 1 1.05885,1.05834 h 1.05781 a 1.0583337,1.0583337 0 0 1 1.05834,-1.05834 1.0583337,1.0583337 0 0 1 1.05833,1.05834 h 1.05885 a 1.0583336,1.0583336 0 0 1 1.05782,-1.05834 1.0583336,1.0583336 0 0 1 1.05885,1.05834 h 1.05833 a 1.0583336,1.0583336 0 0 1 1.05833,-1.05834 1.0583336,1.0583336 0 0 1 1.05834,1.05834 h 1.05833 a 1.0583336,1.0583336 0 0 1 1.05833,-1.05834 1.0583336,1.0583336 0 0 1 1.05834,1.05834 h 1.05833 a 1.0583336,1.0583336 0 0 1 1.05833,-1.05834 1.0583336,1.0583336 0 0 1 1.05834,1.05834 h 1.05833 a 1.0583335,1.0583335 0 0 1 1.05833,-1.05834 1.0583335,1.0583335 0 0 1 1.05834,1.05834 h 1.05833 a 1.0583335,1.0583335 0 0 1 1.05833,-1.05834 1.0583335,1.0583335 0 0 1 1.05834,1.05834 h 1.1777 a 4.2333332,4.2333332 0 0 1 4.23333,-4.23335 V 6.84661 C 185.77985,3.053592 182.72626,0 178.93324,0 Z" />
    <path
       id="path1996"
       style="fill:#ffc130;fill-opacity:1;stroke-width:0.225609"
       d="m 122.4823,84.865196 c -2.00366,0 -3.6167,1.613033 -3.6167,3.6167 v 18.027994 c 0,2.00367 1.61304,3.6167 3.6167,3.6167 h 37.20399 a 3.60877,3.60877 0 0 1 3.60877,-3.60877 v -0.22555 a 0.90219255,0.90219255 0 0 1 -0.90219,-0.90219 0.90219255,0.90219255 0 0 1 0.90219,-0.9022 v -1.35329 a 0.90219255,0.90219255 0 0 1 -0.90219,-0.90219 0.90219255,0.90219255 0 0 1 0.90219,-0.90219 v -1.353289 a 0.90219264,0.90219264 0 0 1 -0.90219,-0.902192 0.90219264,0.90219264 0 0 1 0.90219,-0.902192 v -1.353289 a 0.90219264,0.90219264 0 0 1 -0.90219,-0.902192 0.90219264,0.90219264 0 0 1 0.90219,-0.902194 v -1.353288 a 0.90219264,0.90219264 0 0 1 -0.90219,-0.902193 0.90219264,0.90219264 0 0 1 0.90219,-0.902192 V 90.5039 a 0.90219272,0.90219272 0 0 1 -0.90219,-0.902193 0.90219272,0.90219272 0 0 1 0.90219,-0.902192 v -0.225548 a 3.60877,3.60877 0 0 1 -3.60877,-3.608771 z" />
    <path
       id="path1998"
       style="fill:#f9f9f9;fill-opacity:1;stroke-width:0.225609"
       d="m 167.35493,84.865196 a 3.60877,3.60877 0 0 1 -3.60877,3.608771 v 0.225548 a 0.90219272,0.90219272 0 0 1 0.90219,0.902192 0.90219272,0.90219272 0 0 1 -0.90219,0.902193 v 1.353289 a 0.90219264,0.90219264 0 0 1 0.90219,0.902192 0.90219264,0.90219264 0 0 1 -0.90219,0.902193 v 1.353288 a 0.90219264,0.90219264 0 0 1 0.90219,0.902194 0.90219264,0.90219264 0 0 1 -0.90219,0.902192 v 1.353289 a 0.90219264,0.90219264 0 0 1 0.90219,0.902192 0.90219264,0.90219264 0 0 1 -0.90219,0.902192 v 1.353289 a 0.90219255,0.90219255 0 0 1 0.90219,0.90219 0.90219255,0.90219255 0 0 1 -0.90219,0.90219 v 1.35329 a 0.90219255,0.90219255 0 0 1 0.90219,0.9022 0.90219255,0.90219255 0 0 1 -0.90219,0.90219 v 0.22555 a 3.60877,3.60877 0 0 1 3.60877,3.60877 h 14.74653 c 2.00367,0 3.6167,-1.61303 3.6167,-3.6167 V 88.481896 c 0,-2.003667 -1.61303,-3.6167 -3.6167,-3.6167 z" />
    <g
       id="g1051">
      <rect
         style="fill:#ffc130;fill-opacity:1;stroke:none;stroke-width:0.334272;stroke-miterlimit:4;stroke-dasharray:none"
         id="rect3043"
         width="14.816667"
         height="14.816667"
         x="94.056236"
         y="-4.2010306e-08"
         rx="1.7342535"
         ry="1.7342535" />
      <rect
         style="fill:#cccccc;fill-opacity:1;stroke:none;stroke-width:0.334272;stroke-miterlimit:4;stroke-dasharray:none"
         id="rect3045"
         width="14.816667"
         height="14.816667"
         x="93.867645"
         y="67.877708"
         rx="1.7342535"
         ry="1.7342535" />
      <rect
         style="fill:#666666;fill-opacity:1;stroke:none;stroke-width:0.334272;stroke-miterlimit:4;stroke-dasharray:none"
         id="rect3047"
         width="14.816667"
         height="14.816667"
         x="94.056236"
         y="33.938854"
         rx="1.7342535"
         ry="1.7342535" />
      <rect
         style="fill:#ffd87c;fill-opacity:1;stroke:none;stroke-width:0.334272;stroke-miterlimit:4;stroke-dasharray:none"
         id="rect3049"
         width="14.816667"
         height="14.816667"
         x="94.056236"
         y="16.969427"
         rx="1.7342535"
         ry="1.7342535" />
      <rect
         style="fill:#333333;fill-opacity:1;stroke:none;stroke-width:0.334272;stroke-miterlimit:4;stroke-dasharray:none"
         id="rect3102"
         width="14.816667"
         height="14.816667"
         x="94.056236"
         y="50.908287"
         rx="1.7342535"
         ry="1.7342535" />
      <rect
         style="fill:#f9f9f9;fill-opacity:1;stroke:none;stroke-width:0.334272;stroke-miterlimit:4;stroke-dasharray:none"
         id="rect4212"
         width="14.816667"
         height="14.816667"
         x="93.867645"
         y="84.847137"
         rx="1.7342535"
         ry="1.7342535" />
      <rect
         style="fill:none;fill-opacity:1;stroke:none;stroke-width:0.334272;stroke-miterlimit:4;stroke-dasharray:none;stroke-opacity:0"
         id="rect1042"
         width="14.816667"
         height="14.816667"
         x="93.867645"
         y="101.81657"
         rx="1.7342535"
         ry="1.7342535" />
    </g>
  </g>
  <g
     inkscape:label="background"
     inkscape:groupmode="layer"
     id="layer1"
     transform="translate(-58.125267,-139.86214)"
     sodipodi:insensitive="true">
    <rect
       style="fill:#060505;fill-opacity:1;stroke-width:0.734758"
       id="rect1704"
       width="84.666664"
       height="150.28336"
       x="58.125267"
       y="139.86214" />
  </g>
  <g
     inkscape:groupmode="layer"
     id="layer11"
     inkscape:label="body">
    <path
       id="path2015-7-7"
       style="fill:#ffc130;fill-opacity:1;stroke-width:0.41261"
       d="m 15.72282,-8.0229222 c -3.793023,0 -6.8466037,3.0535902 -6.8466037,6.8466073 V 35.087152 a 4.2333333,4.2333333 0 0 1 4.2333317,4.233352 h 1.177701 a 1.058334,1.058334 0 0 1 1.05834,-1.058342 1.058334,1.058334 0 0 1 1.058331,1.058342 h 1.058331 a 1.0583339,1.0583339 0 0 1 1.05834,-1.058342 1.0583339,1.0583339 0 0 1 1.05833,1.058342 h 1.05833 a 1.0583339,1.0583339 0 0 1 1.05834,-1.058342 1.0583339,1.0583339 0 0 1 1.05833,1.058342 h 1.05833 a 1.0583339,1.0583339 0 0 1 1.05834,-1.058342 1.0583339,1.0583339 0 0 1 1.05833,1.058342 h 1.05833 a 1.0583338,1.0583338 0 0 1 1.05834,-1.058342 1.0583338,1.0583338 0 0 1 1.05833,1.058342 h 1.05833 a 1.0583338,1.0583338 0 0 1 1.05834,-1.058342 1.0583338,1.0583338 0 0 1 1.05833,1.058342 h 1.05833 a 1.0583338,1.0583338 0 0 1 1.05834,-1.058342 1.0583338,1.0583338 0 0 1 1.05833,1.058342 h 1.058331 a 1.0583338,1.0583338 0 0 1 1.058338,-1.058342 1.0583338,1.0583338 0 0 1 1.058852,1.058342 h 1.05781 a 1.0583337,1.0583337 0 0 1 1.058338,-1.058342 1.0583337,1.0583337 0 0 1 1.058331,1.058342 h 1.058331 a 1.0583337,1.0583337 0 0 1 1.058338,-1.058342 1.0583337,1.0583337 0 0 1 1.058331,1.058342 h 1.058849 a 1.0583337,1.0583337 0 0 1 1.05782,-1.058342 1.0583337,1.0583337 0 0 1 1.058852,1.058342 h 1.057809 a 1.0583337,1.0583337 0 0 1 1.058339,-1.058342 1.0583337,1.0583337 0 0 1 1.058331,1.058342 h 1.058849 a 1.0583336,1.0583336 0 0 1 1.05782,-1.058342 1.0583336,1.0583336 0 0 1 1.058852,1.058342 h 1.058328 a 1.0583336,1.0583336 0 0 1 1.058331,-1.058342 1.0583336,1.0583336 0 0 1 1.058341,1.058342 h 1.058328 a 1.0583336,1.0583336 0 0 1 1.058331,-1.058342 1.0583336,1.0583336 0 0 1 1.058341,1.058342 h 1.058328 a 1.0583336,1.0583336 0 0 1 1.058331,-1.058342 1.0583336,1.0583336 0 0 1 1.058341,1.058342 h 1.058328 a 1.0583335,1.0583335 0 0 1 1.058331,-1.058342 1.0583335,1.0583335 0 0 1 1.058341,1.058342 h 1.058328 a 1.0583335,1.0583335 0 0 1 1.058331,-1.058342 1.0583335,1.0583335 0 0 1 1.058341,1.058342 h 1.1777 A 4.2333333,4.2333333 0 0 1 75.79047,35.087152 V -1.1763149 c 0,-3.7930171 -3.053588,-6.8466073 -6.84661,-6.8466073 z" />
    <path
       id="path1996-3"
       style="fill:#ffc130;fill-opacity:1;stroke-width:0.225609"
       d="m 12.523752,48.995319 c -2.00366,0 -3.6166998,1.613033 -3.6166998,3.6167 v 18.027994 c 0,2.00367 1.6130398,3.6167 3.6166998,3.6167 h 37.203989 a 3.6087701,3.6087701 0 0 1 3.608771,-3.60877 v -0.22555 a 0.90219254,0.90219254 0 0 1 -0.902189,-0.90219 0.90219254,0.90219254 0 0 1 0.902189,-0.9022 v -1.35329 a 0.90219254,0.90219254 0 0 1 -0.902189,-0.90219 0.90219254,0.90219254 0 0 1 0.902189,-0.90219 v -1.353289 a 0.90219265,0.90219265 0 0 1 -0.902189,-0.902192 0.90219265,0.90219265 0 0 1 0.902189,-0.902192 v -1.353289 a 0.90219265,0.90219265 0 0 1 -0.902189,-0.902192 0.90219265,0.90219265 0 0 1 0.902189,-0.902194 v -1.353288 a 0.90219265,0.90219265 0 0 1 -0.902189,-0.902193 0.90219265,0.90219265 0 0 1 0.902189,-0.902192 V 54.634023 A 0.90219273,0.90219273 0 0 1 52.434323,53.73183 0.90219273,0.90219273 0 0 1 53.336512,52.829638 V 52.60409 a 3.6087701,3.6087701 0 0 1 -3.608771,-3.608771 z" />
    <path
       id="path1998-6"
       style="fill:#f9f9f9;fill-opacity:1;stroke-width:0.225609"
       d="m 57.396382,48.995319 a 3.6087701,3.6087701 0 0 1 -3.608769,3.608771 v 0.225548 a 0.90219273,0.90219273 0 0 1 0.90219,0.902192 0.90219273,0.90219273 0 0 1 -0.90219,0.902193 v 1.353289 a 0.90219265,0.90219265 0 0 1 0.90219,0.902192 0.90219265,0.90219265 0 0 1 -0.90219,0.902193 v 1.353288 a 0.90219265,0.90219265 0 0 1 0.90219,0.902194 0.90219265,0.90219265 0 0 1 -0.90219,0.902192 v 1.353289 a 0.90219265,0.90219265 0 0 1 0.90219,0.902192 0.90219265,0.90219265 0 0 1 -0.90219,0.902192 v 1.353289 a 0.90219254,0.90219254 0 0 1 0.90219,0.90219 0.90219254,0.90219254 0 0 1 -0.90219,0.90219 v 1.35329 a 0.90219254,0.90219254 0 0 1 0.90219,0.9022 0.90219254,0.90219254 0 0 1 -0.90219,0.90219 v 0.22555 a 3.6087701,3.6087701 0 0 1 3.608769,3.60877 h 14.746531 c 2.003668,0 3.6167,-1.61303 3.6167,-3.6167 V 52.612019 c 0,-2.003667 -1.613032,-3.6167 -3.6167,-3.6167 z" />
    <g
       id="g1746"
       transform="translate(0,-0.67764584)">
      <text
         xml:space="preserve"
         style="font-style:normal;font-weight:normal;font-size:6.35px;line-height:1.25;font-family:sans-serif;fill:#333333;fill-opacity:1;stroke:none;stroke-width:0.264583"
         x="15.305611"
         y="60.50951"
         id="text1726"><tspan
           sodipodi:role="line"
           id="tspan1724"
           x="15.305611"
           y="60.50951"
           style="font-style:normal;font-variant:normal;font-weight:500;font-stretch:normal;font-size:6.35px;font-family:Roboto;-inkscape-font-specification:'Roboto Medium';fill:#333333;fill-opacity:1;stroke-width:0.264583">Carrefour</tspan></text>
      <text
         xml:space="preserve"
         style="font-style:normal;font-weight:normal;font-size:2.82222px;line-height:1.25;font-family:sans-serif;fill:#333333;fill-opacity:1;stroke:none;stroke-width:0.264583"
         x="15.305611"
         y="65.272003"
         id="text1730"><tspan
           sodipodi:role="line"
           x="15.305611"
           y="65.272003"
           style="font-style:normal;font-variant:normal;font-weight:500;font-stretch:normal;font-size:2.82222px;font-family:Roboto;-inkscape-font-specification:'Roboto Medium';fill:#333333;fill-opacity:1;stroke-width:0.264583"
           id="tspan1732">Av. avenida, 1234</tspan><tspan
           sodipodi:role="line"
           x="15.305611"
           y="68.897865"
           style="font-style:normal;font-variant:normal;font-weight:500;font-stretch:normal;font-size:2.82222px;font-family:Roboto;-inkscape-font-specification:'Roboto Medium';fill:#333333;fill-opacity:1;stroke-width:0.264583"
           id="tspan1838">Bairro - Cidade</tspan></text>
    </g>
    <g
       id="g1768"
       transform="translate(5e-7,-1.4440604)">
      <path
         id="path1750"
         style="fill:#c83737;fill-opacity:1;stroke:#c83737;stroke-width:0;stroke-miterlimit:4;stroke-dasharray:none;stroke-opacity:1"
         d="m 64.773613,55.264776 c -2.709831,0 -4.906555,1.35209 -4.906555,4.061919 0,2.70983 3.540267,8.660562 4.906555,8.660562 1.366291,0 4.906554,-5.950732 4.906554,-8.660562 0,-2.709829 -2.196724,-4.061919 -4.906554,-4.061919 z m -0.01256,2.689389 a 2.056154,2.056154 0 0 1 0.01256,0 2.056154,2.056154 0 0 1 2.056251,2.056249 2.056154,2.056154 0 0 1 -2.056251,2.055913 2.056154,2.056154 0 0 1 -2.056251,-2.055913 2.056154,2.056154 0 0 1 2.043691,-2.056249 z" />
      <text
         xml:space="preserve"
         style="font-weight:500;font-size:2.82222px;line-height:1.25;font-family:Roboto;-inkscape-font-specification:'Roboto Medium';fill:#666666;fill-opacity:1;stroke-width:0.264583"
         x="62.036827"
         y="70.847816"
         id="text1763"><tspan
           sodipodi:role="line"
           id="tspan1761"
           x="62.036827"
           y="70.847816"
           style="font-size:2.82222px;fill:#666666;fill-opacity:1;stroke-width:0.264583">GPS</tspan></text>
    </g>
    <path
       id="path1784"
       style="fill:#ffc130;fill-opacity:1;stroke-width:0.225609"
       d="m 12.523752,80.745321 c -2.00366,0 -3.6166998,1.613033 -3.6166998,3.6167 v 18.027989 c 0,2.00367 1.6130398,3.61671 3.6166998,3.61671 h 37.203989 a 3.6087701,3.6087701 0 0 1 3.608771,-3.60878 v -0.22555 a 0.90219254,0.90219254 0 0 1 -0.902189,-0.90219 0.90219254,0.90219254 0 0 1 0.902189,-0.9022 v -1.353285 a 0.90219254,0.90219254 0 0 1 -0.902189,-0.90219 0.90219254,0.90219254 0 0 1 0.902189,-0.90219 v -1.353289 a 0.90219265,0.90219265 0 0 1 -0.902189,-0.902192 0.90219265,0.90219265 0 0 1 0.902189,-0.902192 v -1.353289 a 0.90219265,0.90219265 0 0 1 -0.902189,-0.902192 0.90219265,0.90219265 0 0 1 0.902189,-0.902194 v -1.353288 a 0.90219265,0.90219265 0 0 1 -0.902189,-0.902193 0.90219265,0.90219265 0 0 1 0.902189,-0.902192 v -1.353289 a 0.90219273,0.90219273 0 0 1 -0.902189,-0.902193 0.90219273,0.90219273 0 0 1 0.902189,-0.902192 v -0.225548 a 3.6087701,3.6087701 0 0 1 -3.608771,-3.608771 z" />
    <path
       id="path1786"
       style="fill:#f9f9f9;fill-opacity:1;stroke-width:0.225609"
       d="m 57.396382,80.745321 a 3.6087701,3.6087701 0 0 1 -3.608769,3.608771 v 0.225548 a 0.90219273,0.90219273 0 0 1 0.90219,0.902192 0.90219273,0.90219273 0 0 1 -0.90219,0.902193 v 1.353289 a 0.90219265,0.90219265 0 0 1 0.90219,0.902192 0.90219265,0.90219265 0 0 1 -0.90219,0.902193 v 1.353288 a 0.90219265,0.90219265 0 0 1 0.90219,0.902194 0.90219265,0.90219265 0 0 1 -0.90219,0.902192 v 1.353289 a 0.90219265,0.90219265 0 0 1 0.90219,0.902192 0.90219265,0.90219265 0 0 1 -0.90219,0.902192 v 1.353289 a 0.90219254,0.90219254 0 0 1 0.90219,0.90219 0.90219254,0.90219254 0 0 1 -0.90219,0.90219 V 100.368 a 0.90219254,0.90219254 0 0 1 0.90219,0.9022 0.90219254,0.90219254 0 0 1 -0.90219,0.90219 v 0.22555 a 3.6087701,3.6087701 0 0 1 3.608769,3.60878 h 14.746531 c 2.003668,0 3.6167,-1.61304 3.6167,-3.61671 V 84.362021 c 0,-2.003667 -1.613032,-3.6167 -3.6167,-3.6167 z" />
    <g
       id="g1798"
       transform="translate(0,31.072355)">
      <text
         xml:space="preserve"
         style="font-style:normal;font-weight:normal;font-size:6.35px;line-height:1.25;font-family:sans-serif;fill:#333333;fill-opacity:1;stroke:none;stroke-width:0.264583"
         x="15.305611"
         y="60.50951"
         id="text1790"><tspan
           sodipodi:role="line"
           id="tspan1788"
           x="15.305611"
           y="60.50951"
           style="font-style:normal;font-variant:normal;font-weight:500;font-stretch:normal;font-size:6.35px;font-family:Roboto;-inkscape-font-specification:'Roboto Medium';fill:#333333;fill-opacity:1;stroke-width:0.264583">BH</tspan></text>
      <text
         xml:space="preserve"
         style="font-style:normal;font-weight:normal;font-size:2.82222px;line-height:1.25;font-family:sans-serif;fill:#333333;fill-opacity:1;stroke:none;stroke-width:0.264583"
         x="15.305611"
         y="65.272003"
         id="text1796"><tspan
           sodipodi:role="line"
           x="15.305611"
           y="65.272003"
           style="font-style:normal;font-variant:normal;font-weight:500;font-stretch:normal;font-size:2.82222px;font-family:Roboto;-inkscape-font-specification:'Roboto Medium';fill:#333333;fill-opacity:1;stroke-width:0.264583"
           id="tspan1794">Av. avenida, 1234</tspan><tspan
           sodipodi:role="line"
           x="15.305611"
           y="68.897865"
           style="font-style:normal;font-variant:normal;font-weight:500;font-stretch:normal;font-size:2.82222px;font-family:Roboto;-inkscape-font-specification:'Roboto Medium';fill:#333333;fill-opacity:1;stroke-width:0.264583"
           id="tspan1834">Bairro - Cidade</tspan></text>
    </g>
    <g
       id="g1806"
       transform="translate(5e-7,30.30594)">
      <path
         id="path1800"
         style="fill:#c83737;fill-opacity:1;stroke:#c83737;stroke-width:0;stroke-miterlimit:4;stroke-dasharray:none;stroke-opacity:1"
         d="m 64.773613,55.264776 c -2.709831,0 -4.906555,1.35209 -4.906555,4.061919 0,2.70983 3.540267,8.660562 4.906555,8.660562 1.366291,0 4.906554,-5.950732 4.906554,-8.660562 0,-2.709829 -2.196724,-4.061919 -4.906554,-4.061919 z m -0.01256,2.689389 a 2.056154,2.056154 0 0 1 0.01256,0 2.056154,2.056154 0 0 1 2.056251,2.056249 2.056154,2.056154 0 0 1 -2.056251,2.055913 2.056154,2.056154 0 0 1 -2.056251,-2.055913 2.056154,2.056154 0 0 1 2.043691,-2.056249 z" />
      <text
         xml:space="preserve"
         style="font-weight:500;font-size:2.82222px;line-height:1.25;font-family:Roboto;-inkscape-font-specification:'Roboto Medium';fill:#666666;fill-opacity:1;stroke-width:0.264583"
         x="62.036827"
         y="70.847816"
         id="text1804"><tspan
           sodipodi:role="line"
           id="tspan1802"
           x="62.036827"
           y="70.847816"
           style="font-size:2.82222px;fill:#666666;fill-opacity:1;stroke-width:0.264583">GPS</tspan></text>
    </g>
    <path
       id="path1840"
       style="fill:#ffc130;fill-opacity:1;stroke-width:0.225609"
       d="m 12.523752,112.49533 c -2.00366,0 -3.6166998,1.61303 -3.6166998,3.6167 v 18.028 c 0,2.00367 1.6130398,3.61671 3.6166998,3.61671 h 37.203989 a 3.6087701,3.6087701 0 0 1 3.608771,-3.60878 v -0.22555 a 0.90219254,0.90219254 0 0 1 -0.902189,-0.90219 0.90219254,0.90219254 0 0 1 0.902189,-0.9022 v -1.35329 a 0.90219254,0.90219254 0 0 1 -0.902189,-0.90219 0.90219254,0.90219254 0 0 1 0.902189,-0.90219 v -1.35329 a 0.90219265,0.90219265 0 0 1 -0.902189,-0.90219 0.90219265,0.90219265 0 0 1 0.902189,-0.90219 v -1.35329 a 0.90219265,0.90219265 0 0 1 -0.902189,-0.9022 0.90219265,0.90219265 0 0 1 0.902189,-0.90219 v -1.35329 a 0.90219265,0.90219265 0 0 1 -0.902189,-0.90219 0.90219265,0.90219265 0 0 1 0.902189,-0.9022 v -1.35328 a 0.90219273,0.90219273 0 0 1 -0.902189,-0.9022 0.90219273,0.90219273 0 0 1 0.902189,-0.90219 v -0.22555 a 3.6087701,3.6087701 0 0 1 -3.608771,-3.60877 z" />
    <path
       id="path1842"
       style="fill:#f9f9f9;fill-opacity:1;stroke-width:0.225609"
       d="m 57.396382,112.49533 a 3.6087701,3.6087701 0 0 1 -3.608769,3.60877 v 0.22555 a 0.90219273,0.90219273 0 0 1 0.90219,0.90219 0.90219273,0.90219273 0 0 1 -0.90219,0.9022 v 1.35328 a 0.90219265,0.90219265 0 0 1 0.90219,0.9022 0.90219265,0.90219265 0 0 1 -0.90219,0.90219 v 1.35329 a 0.90219265,0.90219265 0 0 1 0.90219,0.90219 0.90219265,0.90219265 0 0 1 -0.90219,0.9022 v 1.35329 a 0.90219265,0.90219265 0 0 1 0.90219,0.90219 0.90219265,0.90219265 0 0 1 -0.90219,0.90219 v 1.35329 a 0.90219254,0.90219254 0 0 1 0.90219,0.90219 0.90219254,0.90219254 0 0 1 -0.90219,0.90219 v 1.35329 a 0.90219254,0.90219254 0 0 1 0.90219,0.9022 0.90219254,0.90219254 0 0 1 -0.90219,0.90219 v 0.22555 a 3.6087701,3.6087701 0 0 1 3.608769,3.60878 h 14.746531 c 2.003668,0 3.6167,-1.61304 3.6167,-3.61671 v -18.028 c 0,-2.00367 -1.613032,-3.6167 -3.6167,-3.6167 z" />
    <g
       id="g1854"
       transform="translate(0,62.822357)">
      <text
         xml:space="preserve"
         style="font-style:normal;font-weight:normal;font-size:6.35px;line-height:1.25;font-family:sans-serif;fill:#333333;fill-opacity:1;stroke:none;stroke-width:0.264583"
         x="15.305611"
         y="60.50951"
         id="text1846"><tspan
           sodipodi:role="line"
           id="tspan1844"
           x="15.305611"
           y="60.50951"
           style="font-style:normal;font-variant:normal;font-weight:500;font-stretch:normal;font-size:6.35px;font-family:Roboto;-inkscape-font-specification:'Roboto Medium';fill:#333333;fill-opacity:1;stroke-width:0.264583">Tenda</tspan></text>
      <text
         xml:space="preserve"
         style="font-style:normal;font-weight:normal;font-size:2.82222px;line-height:1.25;font-family:sans-serif;fill:#333333;fill-opacity:1;stroke:none;stroke-width:0.264583"
         x="15.305611"
         y="65.272003"
         id="text1852"><tspan
           sodipodi:role="line"
           x="15.305611"
           y="65.272003"
           style="font-style:normal;font-variant:normal;font-weight:500;font-stretch:normal;font-size:2.82222px;font-family:Roboto;-inkscape-font-specification:'Roboto Medium';fill:#333333;fill-opacity:1;stroke-width:0.264583"
           id="tspan1848">Av. avenida, 1234</tspan><tspan
           sodipodi:role="line"
           x="15.305611"
           y="68.897865"
           style="font-style:normal;font-variant:normal;font-weight:500;font-stretch:normal;font-size:2.82222px;font-family:Roboto;-inkscape-font-specification:'Roboto Medium';fill:#333333;fill-opacity:1;stroke-width:0.264583"
           id="tspan1850">Bairro - Cidade</tspan></text>
    </g>
    <g
       id="g1862"
       transform="translate(5e-7,62.055942)">
      <path
         id="path1856"
         style="fill:#c83737;fill-opacity:1;stroke:#c83737;stroke-width:0;stroke-miterlimit:4;stroke-dasharray:none;stroke-opacity:1"
         d="m 64.773613,55.264776 c -2.709831,0 -4.906555,1.35209 -4.906555,4.061919 0,2.70983 3.540267,8.660562 4.906555,8.660562 1.366291,0 4.906554,-5.950732 4.906554,-8.660562 0,-2.709829 -2.196724,-4.061919 -4.906554,-4.061919 z m -0.01256,2.689389 a 2.056154,2.056154 0 0 1 0.01256,0 2.056154,2.056154 0 0 1 2.056251,2.056249 2.056154,2.056154 0 0 1 -2.056251,2.055913 2.056154,2.056154 0 0 1 -2.056251,-2.055913 2.056154,2.056154 0 0 1 2.043691,-2.056249 z" />
      <text
         xml:space="preserve"
         style="font-weight:500;font-size:2.82222px;line-height:1.25;font-family:Roboto;-inkscape-font-specification:'Roboto Medium';fill:#666666;fill-opacity:1;stroke-width:0.264583"
         x="62.036827"
         y="70.847816"
         id="text1860"><tspan
           sodipodi:role="line"
           id="tspan1858"
           x="62.036827"
           y="70.847816"
           style="font-size:2.82222px;fill:#666666;fill-opacity:1;stroke-width:0.264583">GPS</tspan></text>
    </g>
    <g
       id="g5197">
      <text
         xml:space="preserve"
         style="font-weight:500;font-size:7.76111px;line-height:1.25;font-family:Roboto;-inkscape-font-specification:'Roboto Medium';fill:#333333;fill-opacity:1;stroke-width:0.264583"
         x="12.876964"
         y="148.36169"
         id="text1973"><tspan
           sodipodi:role="line"
           id="tspan1971"
           x="12.876964"
           y="148.36169"
           style="font-size:7.76111px;fill:#333333;fill-opacity:1;stroke-width:0.264583">Pegar uma senha</tspan></text>
      <rect
         style="fill:#f9f9f9;fill-opacity:1;stroke:none;stroke-width:0;stroke-miterlimit:4;stroke-dasharray:none;stroke-opacity:0"
         id="rect1978"
         width="84.666664"
         height="16.933332"
         x="9.2782602e-07"
         y="133.35002" />
      <g
         id="g4010">
        <rect
           style="fill:#666666;fill-opacity:1;stroke:none;stroke-width:0;stroke-miterlimit:4;stroke-dasharray:none;stroke-opacity:0"
           id="rect3979"
           width="12.7"
           height="2.1166666"
           x="63.090458"
           y="137.05424"
           rx="1.0583333"
           ry="1.0583333" />
        <rect
           style="fill:#666666;fill-opacity:1;stroke:none;stroke-width:0;stroke-miterlimit:4;stroke-dasharray:none;stroke-opacity:0"
           id="rect3983"
           width="10.583333"
           height="2.1166666"
           x="65.207123"
           y="140.75836"
           rx="1.0583333"
           ry="1.0583333" />
        <rect
           style="fill:#666666;fill-opacity:1;stroke:none;stroke-width:0;stroke-miterlimit:4;stroke-dasharray:none;stroke-opacity:0"
           id="rect3985"
           width="8.4666662"
           height="2.1166666"
           x="67.323792"
           y="144.46248"
           rx="1.0583333"
           ry="1.0583333" />
      </g>
      <g
         id="g4017"
         transform="matrix(0.91927478,0,0,0.91927478,-1.0220199,11.934553)">
        <rect
           style="fill:#666666;fill-opacity:1;stroke:none;stroke-width:0;stroke-miterlimit:4;stroke-dasharray:none;stroke-opacity:0"
           id="rect3995"
           width="11.512688"
           height="1.9187813"
           x="10.767442"
           y="140.32822"
           rx="0.95939064"
           ry="0.95939064" />
        <rect
           style="fill:#666666;fill-opacity:1;stroke:none;stroke-width:0;stroke-miterlimit:4;stroke-dasharray:none;stroke-opacity:0"
           id="rect4005"
           width="7.6751251"
           height="1.9187813"
           x="107.23939"
           y="90.653923"
           rx="0.95939064"
           ry="0.95939064"
           transform="rotate(45)" />
        <rect
           style="fill:#666666;fill-opacity:1;stroke:none;stroke-width:0;stroke-miterlimit:4;stroke-dasharray:none;stroke-opacity:0"
           id="rect4012"
           width="7.6751251"
           height="1.9187813"
           x="-92.571465"
           y="-109.15693"
           rx="0.95939064"
           ry="0.95939064"
           transform="matrix(0.70710678,-0.70710678,-0.70710678,-0.70710678,0,0)" />
      </g>
      <g
         id="g5155"
         transform="matrix(0.91123102,0,0,0.91123102,4.665518,12.926313)">
        <path
           id="rect5128"
           style="fill:#666666;fill-opacity:1;stroke:none;stroke-width:0;stroke-miterlimit:4;stroke-dasharray:none;stroke-opacity:0"
           d="m 41.399553,135.64184 c -0.203178,-0.0142 -0.412652,0.0301 -0.603064,0.14005 l -9.165331,5.29166 c -0.507765,0.29316 -0.680733,0.93814 -0.387572,1.44591 0.293158,0.50777 0.938141,0.68021 1.445905,0.38706 l 8.635132,-4.98574 8.660453,5.0002 c 0.507767,0.29317 1.152747,0.1202 1.445906,-0.38757 0.293158,-0.50776 0.120195,-1.15223 -0.387573,-1.44539 l -9.165333,-5.29166 c -0.0082,-0.005 -0.01705,-0.007 -0.02532,-0.0114 -0.139341,-0.0805 -0.293225,-0.13196 -0.453203,-0.14315 z" />
        <g
           id="g5149">
          <rect
             style="fill:#666666;fill-opacity:1;stroke:none;stroke-width:0;stroke-miterlimit:4;stroke-dasharray:none;stroke-opacity:0"
             id="rect5124"
             width="8.4666662"
             height="2.1166666"
             x="138.78693"
             y="-37.774849"
             rx="1.0583333"
             ry="1.0583333"
             transform="rotate(90)" />
          <rect
             style="fill:#666666;fill-opacity:1;stroke:none;stroke-width:0;stroke-miterlimit:4;stroke-dasharray:none;stroke-opacity:0"
             id="rect5132"
             width="8.4666662"
             height="2.1166666"
             x="138.78693"
             y="-47.016384"
             rx="1.0583333"
             ry="1.0583333"
             transform="rotate(90)" />
        </g>
      </g>
    </g>
  </g>
  <g
     inkscape:groupmode="layer"
     id="layer9"
     inkscape:label="header" />
  <g
     inkscape:groupmode="layer"
     id="layer8"
     inkscape:label="header text">
    <text
       xml:space="preserve"
       style="font-style:normal;font-variant:normal;font-weight:500;font-stretch:normal;font-size:10.5833px;line-height:0.85;font-family:Roboto;-inkscape-font-specification:'Roboto Medium';fill:#333333;stroke-width:0.264583"
       x="14.981085"
       y="15.759604"
       id="text3064"><tspan
         sodipodi:role="line"
         id="tspan3062"
         x="14.981085"
         y="15.759604"
         style="font-style:normal;font-variant:normal;font-weight:500;font-stretch:normal;font-size:10.5833px;font-family:Roboto;-inkscape-font-specification:'Roboto Medium';fill:#333333;stroke-width:0.264583">Estabeleci</tspan><tspan
         sodipodi:role="line"
         x="14.981085"
         y="24.755409"
         style="font-style:normal;font-variant:normal;font-weight:500;font-stretch:normal;font-size:10.5833px;font-family:Roboto;-inkscape-font-specification:'Roboto Medium';fill:#333333;stroke-width:0.264583"
         id="tspan1684">mentos</tspan></text>
  </g>
</svg>
