<?xml version="1.0" encoding="UTF-8" standalone="no"?>
<svg
   xmlns:dc="http://purl.org/dc/elements/1.1/"
   xmlns:cc="http://creativecommons.org/ns#"
   xmlns:rdf="http://www.w3.org/1999/02/22-rdf-syntax-ns#"
   xmlns:svg="http://www.w3.org/2000/svg"
   xmlns="http://www.w3.org/2000/svg"
   xmlns:sodipodi="http://sodipodi.sourceforge.net/DTD/sodipodi-0.dtd"
   xmlns:inkscape="http://www.inkscape.org/namespaces/inkscape"
   width="320"
   height="568.00006"
   viewBox="0 0 84.666665 150.28335"
   version="1.1"
   id="svg3219"
   inkscape:version="1.0.1 (0767f8302a, 2020-10-17)"
   sodipodi:docname="home_offcanvas.svg"
   inkscape:export-filename="/home/filipe/Imagens/e-ticket/2.png"
   inkscape:export-xdpi="96"
   inkscape:export-ydpi="96">
  <defs
     id="defs3213" />
  <sodipodi:namedview
     id="base"
     pagecolor="#b4b4b4"
     bordercolor="#666666"
     borderopacity="1.0"
     inkscape:pageopacity="0"
     inkscape:pageshadow="2"
     inkscape:zoom="0.68175497"
     inkscape:cx="253.48014"
     inkscape:cy="248.04539"
     inkscape:document-units="px"
     inkscape:current-layer="layer3"
     inkscape:document-rotation="0"
     showgrid="false"
     inkscape:pagecheckerboard="true"
     units="px"
     inkscape:window-width="1366"
     inkscape:window-height="705"
     inkscape:window-x="0"
     inkscape:window-y="30"
     inkscape:window-maximized="1"
     inkscape:snap-intersection-paths="true"
     inkscape:object-paths="true"
     inkscape:snap-global="false" />
  <metadata
     id="metadata3216">
    <rdf:RDF>
      <cc:Work
         rdf:about="">
        <dc:format>image/svg+xml</dc:format>
        <dc:type
           rdf:resource="http://purl.org/dc/dcmitype/StillImage" />
        <dc:title />
      </cc:Work>
    </rdf:RDF>
  </metadata>
  <g
     inkscape:groupmode="layer"
     id="layer10"
     inkscape:label="pallet">
    <path
       id="rect2006-9"
       style="fill:#f9f9f9;fill-opacity:1;stroke-width:0.41261"
       d="m 123.09893,47.872594 a 4.2333332,4.2333332 0 0 1 -4.23334,4.23336 v 14.18578 c 0,3.79304 3.0536,6.84665 6.84662,6.84665 h 53.22103 c 3.79302,0 6.84661,-3.05361 6.84661,-6.84665 v -14.18578 a 4.2333332,4.2333332 0 0 1 -4.23333,-4.23336 h -1.1777 a 1.0583335,1.0583335 0 0 1 -1.05834,1.05834 1.0583335,1.0583335 0 0 1 -1.05833,-1.05834 h -1.05833 a 1.0583335,1.0583335 0 0 1 -1.05834,1.05834 1.0583335,1.0583335 0 0 1 -1.05833,-1.05834 h -1.05833 a 1.0583336,1.0583336 0 0 1 -1.05834,1.05834 1.0583336,1.0583336 0 0 1 -1.05833,-1.05834 h -1.05833 a 1.0583336,1.0583336 0 0 1 -1.05834,1.05834 1.0583336,1.0583336 0 0 1 -1.05833,-1.05834 h -1.05833 a 1.0583336,1.0583336 0 0 1 -1.05834,1.05834 1.0583336,1.0583336 0 0 1 -1.05833,-1.05834 h -1.05833 a 1.0583336,1.0583336 0 0 1 -1.05885,1.05834 1.0583336,1.0583336 0 0 1 -1.05782,-1.05834 h -1.05885 a 1.0583337,1.0583337 0 0 1 -1.05833,1.05834 1.0583337,1.0583337 0 0 1 -1.05834,-1.05834 h -1.05781 a 1.0583337,1.0583337 0 0 1 -1.05885,1.05834 1.0583337,1.0583337 0 0 1 -1.05782,-1.05834 h -1.05885 a 1.0583337,1.0583337 0 0 1 -1.05833,1.05834 1.0583337,1.0583337 0 0 1 -1.05834,-1.05834 h -1.05833 a 1.0583337,1.0583337 0 0 1 -1.05833,1.05834 1.0583337,1.0583337 0 0 1 -1.05834,-1.05834 h -1.05781 a 1.0583338,1.0583338 0 0 1 -1.05885,1.05834 1.0583338,1.0583338 0 0 1 -1.05833,-1.05834 h -1.05834 a 1.0583338,1.0583338 0 0 1 -1.05833,1.05834 1.0583338,1.0583338 0 0 1 -1.05834,-1.05834 h -1.05833 a 1.0583338,1.0583338 0 0 1 -1.05833,1.05834 1.0583338,1.0583338 0 0 1 -1.05833,-1.05834 h -1.05834 a 1.0583338,1.0583338 0 0 1 -1.05833,1.05834 1.0583338,1.0583338 0 0 1 -1.05834,-1.05834 h -1.05833 a 1.0583339,1.0583339 0 0 1 -1.05833,1.05834 1.0583339,1.0583339 0 0 1 -1.05834,-1.05834 h -1.05833 a 1.0583339,1.0583339 0 0 1 -1.05833,1.05834 1.0583339,1.0583339 0 0 1 -1.05834,-1.05834 h -1.05833 a 1.0583339,1.0583339 0 0 1 -1.05833,1.05834 1.0583339,1.0583339 0 0 1 -1.05834,-1.05834 h -1.05833 a 1.058334,1.058334 0 0 1 -1.05833,1.05834 1.058334,1.058334 0 0 1 -1.05834,-1.05834 z" />
    <path
       id="path2015-7"
       style="fill:#ffc130;fill-opacity:1;stroke-width:0.41261"
       d="m 125.7122,0 c -3.79302,0 -6.8466,3.053592 -6.8466,6.84661 v 36.263464 a 4.2333332,4.2333332 0 0 1 4.23333,4.23335 h 1.1777 a 1.058334,1.058334 0 0 1 1.05834,-1.05834 1.058334,1.058334 0 0 1 1.05833,1.05834 h 1.05833 a 1.0583339,1.0583339 0 0 1 1.05834,-1.05834 1.0583339,1.0583339 0 0 1 1.05833,1.05834 h 1.05833 a 1.0583339,1.0583339 0 0 1 1.05834,-1.05834 1.0583339,1.0583339 0 0 1 1.05833,1.05834 h 1.05833 a 1.0583339,1.0583339 0 0 1 1.05834,-1.05834 1.0583339,1.0583339 0 0 1 1.05833,1.05834 h 1.05833 a 1.0583338,1.0583338 0 0 1 1.05834,-1.05834 1.0583338,1.0583338 0 0 1 1.05833,1.05834 h 1.05833 a 1.0583338,1.0583338 0 0 1 1.05834,-1.05834 1.0583338,1.0583338 0 0 1 1.05833,1.05834 h 1.05833 a 1.0583338,1.0583338 0 0 1 1.05834,-1.05834 1.0583338,1.0583338 0 0 1 1.05833,1.05834 h 1.05833 a 1.0583338,1.0583338 0 0 1 1.05834,-1.05834 1.0583338,1.0583338 0 0 1 1.05885,1.05834 h 1.05781 a 1.0583337,1.0583337 0 0 1 1.05834,-1.05834 1.0583337,1.0583337 0 0 1 1.05833,1.05834 h 1.05833 a 1.0583337,1.0583337 0 0 1 1.05834,-1.05834 1.0583337,1.0583337 0 0 1 1.05833,1.05834 h 1.05885 a 1.0583337,1.0583337 0 0 1 1.05782,-1.05834 1.0583337,1.0583337 0 0 1 1.05885,1.05834 h 1.05781 a 1.0583337,1.0583337 0 0 1 1.05834,-1.05834 1.0583337,1.0583337 0 0 1 1.05833,1.05834 h 1.05885 a 1.0583336,1.0583336 0 0 1 1.05782,-1.05834 1.0583336,1.0583336 0 0 1 1.05885,1.05834 h 1.05833 a 1.0583336,1.0583336 0 0 1 1.05833,-1.05834 1.0583336,1.0583336 0 0 1 1.05834,1.05834 h 1.05833 a 1.0583336,1.0583336 0 0 1 1.05833,-1.05834 1.0583336,1.0583336 0 0 1 1.05834,1.05834 h 1.05833 a 1.0583336,1.0583336 0 0 1 1.05833,-1.05834 1.0583336,1.0583336 0 0 1 1.05834,1.05834 h 1.05833 a 1.0583335,1.0583335 0 0 1 1.05833,-1.05834 1.0583335,1.0583335 0 0 1 1.05834,1.05834 h 1.05833 a 1.0583335,1.0583335 0 0 1 1.05833,-1.05834 1.0583335,1.0583335 0 0 1 1.05834,1.05834 h 1.1777 a 4.2333332,4.2333332 0 0 1 4.23333,-4.23335 V 6.84661 C 185.77985,3.053592 182.72626,0 178.93324,0 Z" />
    <path
       id="path1996"
       style="fill:#ffc130;fill-opacity:1;stroke-width:0.225609"
       d="m 122.4823,84.865196 c -2.00366,0 -3.6167,1.613033 -3.6167,3.6167 v 18.027994 c 0,2.00367 1.61304,3.6167 3.6167,3.6167 h 37.20399 a 3.60877,3.60877 0 0 1 3.60877,-3.60877 v -0.22555 a 0.90219255,0.90219255 0 0 1 -0.90219,-0.90219 0.90219255,0.90219255 0 0 1 0.90219,-0.9022 v -1.35329 a 0.90219255,0.90219255 0 0 1 -0.90219,-0.90219 0.90219255,0.90219255 0 0 1 0.90219,-0.90219 v -1.353289 a 0.90219264,0.90219264 0 0 1 -0.90219,-0.902192 0.90219264,0.90219264 0 0 1 0.90219,-0.902192 v -1.353289 a 0.90219264,0.90219264 0 0 1 -0.90219,-0.902192 0.90219264,0.90219264 0 0 1 0.90219,-0.902194 v -1.353288 a 0.90219264,0.90219264 0 0 1 -0.90219,-0.902193 0.90219264,0.90219264 0 0 1 0.90219,-0.902192 V 90.5039 a 0.90219272,0.90219272 0 0 1 -0.90219,-0.902193 0.90219272,0.90219272 0 0 1 0.90219,-0.902192 v -0.225548 a 3.60877,3.60877 0 0 1 -3.60877,-3.608771 z" />
    <path
       id="path1998"
       style="fill:#f9f9f9;fill-opacity:1;stroke-width:0.225609"
       d="m 167.35493,84.865196 a 3.60877,3.60877 0 0 1 -3.60877,3.608771 v 0.225548 a 0.90219272,0.90219272 0 0 1 0.90219,0.902192 0.90219272,0.90219272 0 0 1 -0.90219,0.902193 v 1.353289 a 0.90219264,0.90219264 0 0 1 0.90219,0.902192 0.90219264,0.90219264 0 0 1 -0.90219,0.902193 v 1.353288 a 0.90219264,0.90219264 0 0 1 0.90219,0.902194 0.90219264,0.90219264 0 0 1 -0.90219,0.902192 v 1.353289 a 0.90219264,0.90219264 0 0 1 0.90219,0.902192 0.90219264,0.90219264 0 0 1 -0.90219,0.902192 v 1.353289 a 0.90219255,0.90219255 0 0 1 0.90219,0.90219 0.90219255,0.90219255 0 0 1 -0.90219,0.90219 v 1.35329 a 0.90219255,0.90219255 0 0 1 0.90219,0.9022 0.90219255,0.90219255 0 0 1 -0.90219,0.90219 v 0.22555 a 3.60877,3.60877 0 0 1 3.60877,3.60877 h 14.74653 c 2.00367,0 3.6167,-1.61303 3.6167,-3.6167 V 88.481896 c 0,-2.003667 -1.61303,-3.6167 -3.6167,-3.6167 z" />
    <g
       id="g1051"
       transform="translate(1.085891)">
      <rect
         style="fill:#ffc130;fill-opacity:1;stroke:none;stroke-width:0.334272;stroke-miterlimit:4;stroke-dasharray:none"
         id="rect3043"
         width="14.816667"
         height="14.816667"
         x="94.056236"
         y="-4.2010306e-08"
         rx="1.7342535"
         ry="1.7342535" />
      <rect
         style="fill:#cccccc;fill-opacity:1;stroke:none;stroke-width:0.334272;stroke-miterlimit:4;stroke-dasharray:none"
         id="rect3045"
         width="14.816667"
         height="14.816667"
         x="93.867645"
         y="67.877708"
         rx="1.7342535"
         ry="1.7342535" />
      <rect
         style="fill:#666666;fill-opacity:1;stroke:none;stroke-width:0.334272;stroke-miterlimit:4;stroke-dasharray:none"
         id="rect3047"
         width="14.816667"
         height="14.816667"
         x="94.056236"
         y="33.938854"
         rx="1.7342535"
         ry="1.7342535" />
      <rect
         style="fill:#ffd87c;fill-opacity:1;stroke:none;stroke-width:0.334272;stroke-miterlimit:4;stroke-dasharray:none"
         id="rect3049"
         width="14.816667"
         height="14.816667"
         x="94.056236"
         y="16.969427"
         rx="1.7342535"
         ry="1.7342535" />
      <rect
         style="fill:#333333;fill-opacity:1;stroke:none;stroke-width:0.334272;stroke-miterlimit:4;stroke-dasharray:none"
         id="rect3102"
         width="14.816667"
         height="14.816667"
         x="94.056236"
         y="50.908287"
         rx="1.7342535"
         ry="1.7342535" />
      <rect
         style="fill:#f9f9f9;fill-opacity:1;stroke:none;stroke-width:0.334272;stroke-miterlimit:4;stroke-dasharray:none"
         id="rect4212"
         width="14.816667"
         height="14.816667"
         x="93.867645"
         y="84.847137"
         rx="1.7342535"
         ry="1.7342535" />
      <rect
         style="fill:#c83737;fill-opacity:1;stroke:none;stroke-width:0.334272;stroke-miterlimit:4;stroke-dasharray:none"
         id="rect1042"
         width="14.816667"
         height="14.816667"
         x="93.867645"
         y="101.81657"
         rx="1.7342535"
         ry="1.7342535" />
    </g>
  </g>
  <g
     inkscape:label="background"
     inkscape:groupmode="layer"
     id="layer1"
     transform="translate(-58.125267,-139.86214)"
     sodipodi:insensitive="true">
    <rect
       style="fill:#060505;fill-opacity:1;stroke-width:0.734758"
       id="rect1704"
       width="84.666664"
       height="150.28336"
       x="58.125267"
       y="139.86214" />
  </g>
  <g
     inkscape:groupmode="layer"
     id="layer11"
     inkscape:label="body">
    <path
       id="rect2006-9-7"
       style="fill:#f9f9f9;fill-opacity:1;stroke-width:0.41261"
       d="m 13.109543,49.903838 a 4.2333333,4.2333333 0 0 1 -4.23334,4.23336 v 14.185785 c 0,3.79304 3.0536,6.84665 6.84662,6.84665 h 53.22103 c 3.793019,0 6.84661,-3.05361 6.84661,-6.84665 V 54.137198 a 4.2333333,4.2333333 0 0 1 -4.233331,-4.23336 h -1.177698 a 1.0583335,1.0583335 0 0 1 -1.058341,1.058341 1.0583335,1.0583335 0 0 1 -1.058331,-1.058341 h -1.058328 a 1.0583335,1.0583335 0 0 1 -1.058341,1.058341 1.0583335,1.0583335 0 0 1 -1.05833,-1.058341 h -1.058329 a 1.0583336,1.0583336 0 0 1 -1.058341,1.058341 1.0583336,1.0583336 0 0 1 -1.05833,-1.058341 h -1.058331 a 1.0583336,1.0583336 0 0 1 -1.058339,1.058341 1.0583336,1.0583336 0 0 1 -1.05833,-1.058341 h -1.058331 a 1.0583336,1.0583336 0 0 1 -1.058339,1.058341 1.0583336,1.0583336 0 0 1 -1.05833,-1.058341 h -1.058331 a 1.0583336,1.0583336 0 0 1 -1.058849,1.058341 1.0583336,1.0583336 0 0 1 -1.05782,-1.058341 h -1.05885 a 1.0583337,1.0583337 0 0 1 -1.05833,1.058341 1.0583337,1.0583337 0 0 1 -1.058339,-1.058341 h -1.057812 a 1.0583337,1.0583337 0 0 1 -1.058849,1.058341 1.0583337,1.0583337 0 0 1 -1.05782,-1.058341 h -1.05885 a 1.0583337,1.0583337 0 0 1 -1.05833,1.058341 1.0583337,1.0583337 0 0 1 -1.058339,-1.058341 h -1.058331 a 1.0583337,1.0583337 0 0 1 -1.05833,1.058341 1.0583337,1.0583337 0 0 1 -1.058339,-1.058341 h -1.057812 a 1.0583338,1.0583338 0 0 1 -1.058849,1.058341 1.0583338,1.0583338 0 0 1 -1.058331,-1.058341 h -1.058339 a 1.0583338,1.0583338 0 0 1 -1.05833,1.058341 1.0583338,1.0583338 0 0 1 -1.05834,-1.058341 h -1.05833 a 1.0583338,1.0583338 0 0 1 -1.05833,1.058341 1.0583338,1.0583338 0 0 1 -1.05833,-1.058341 h -1.05834 a 1.0583338,1.0583338 0 0 1 -1.05833,1.058341 1.0583338,1.0583338 0 0 1 -1.05834,-1.058341 h -1.05833 a 1.0583339,1.0583339 0 0 1 -1.05833,1.058341 1.0583339,1.0583339 0 0 1 -1.05834,-1.058341 h -1.05833 a 1.0583339,1.0583339 0 0 1 -1.05833,1.058341 1.0583339,1.0583339 0 0 1 -1.05834,-1.058341 h -1.05833 a 1.0583339,1.0583339 0 0 1 -1.05833,1.058341 1.0583339,1.0583339 0 0 1 -1.05834,-1.058341 h -1.05833 a 1.058334,1.058334 0 0 1 -1.05833,1.058341 1.058334,1.058334 0 0 1 -1.05834,-1.058341 z" />
    <path
       id="rect2006-9-3"
       style="fill:#f9f9f9;fill-opacity:1;stroke-width:0.41261;opacity:0"
       d="m 14.066644,133.62557 a 4.2333333,4.2333333 0 0 1 -4.2333403,4.23336 v 14.18578 c 0,3.79304 3.0536003,6.84665 6.8466203,6.84665 h 53.22103 c 3.793019,0 6.84661,-3.05361 6.84661,-6.84665 v -14.18578 a 4.2333333,4.2333333 0 0 1 -4.233331,-4.23336 h -1.177698 a 1.0583335,1.0583335 0 0 1 -1.058341,1.05834 1.0583335,1.0583335 0 0 1 -1.058331,-1.05834 h -1.058328 a 1.0583335,1.0583335 0 0 1 -1.058341,1.05834 1.0583335,1.0583335 0 0 1 -1.05833,-1.05834 h -1.058329 a 1.0583336,1.0583336 0 0 1 -1.058341,1.05834 1.0583336,1.0583336 0 0 1 -1.05833,-1.05834 h -1.058331 a 1.0583336,1.0583336 0 0 1 -1.058339,1.05834 1.0583336,1.0583336 0 0 1 -1.05833,-1.05834 h -1.058331 a 1.0583336,1.0583336 0 0 1 -1.058339,1.05834 1.0583336,1.0583336 0 0 1 -1.05833,-1.05834 h -1.058331 a 1.0583336,1.0583336 0 0 1 -1.058849,1.05834 1.0583336,1.0583336 0 0 1 -1.05782,-1.05834 h -1.05885 a 1.0583337,1.0583337 0 0 1 -1.05833,1.05834 1.0583337,1.0583337 0 0 1 -1.058339,-1.05834 h -1.057812 a 1.0583337,1.0583337 0 0 1 -1.058849,1.05834 1.0583337,1.0583337 0 0 1 -1.05782,-1.05834 h -1.05885 a 1.0583337,1.0583337 0 0 1 -1.05833,1.05834 1.0583337,1.0583337 0 0 1 -1.058339,-1.05834 h -1.058331 a 1.0583337,1.0583337 0 0 1 -1.05833,1.05834 1.0583337,1.0583337 0 0 1 -1.058339,-1.05834 h -1.057812 a 1.0583338,1.0583338 0 0 1 -1.058849,1.05834 1.0583338,1.0583338 0 0 1 -1.058331,-1.05834 h -1.058339 a 1.0583338,1.0583338 0 0 1 -1.05833,1.05834 1.0583338,1.0583338 0 0 1 -1.05834,-1.05834 h -1.05833 a 1.0583338,1.0583338 0 0 1 -1.05833,1.05834 1.0583338,1.0583338 0 0 1 -1.05833,-1.05834 h -1.05834 a 1.0583338,1.0583338 0 0 1 -1.05833,1.05834 1.0583338,1.0583338 0 0 1 -1.05834,-1.05834 h -1.05833 a 1.0583339,1.0583339 0 0 1 -1.05833,1.05834 1.0583339,1.0583339 0 0 1 -1.05834,-1.05834 h -1.05833 a 1.0583339,1.0583339 0 0 1 -1.05833,1.05834 1.0583339,1.0583339 0 0 1 -1.05834,-1.05834 h -1.05833 a 1.0583339,1.0583339 0 0 1 -1.05833,1.05834 1.0583339,1.0583339 0 0 1 -1.05834,-1.05834 h -1.05833 a 1.058334,1.058334 0 0 1 -1.05833,1.05834 1.058334,1.058334 0 0 1 -1.05834,-1.05834 z" />
    <path
       id="path2015-7-5"
       style="fill:#ffc130;fill-opacity:1;stroke-width:0.41261"
       d="m 15.722808,85.752967 c -3.79302,0 -6.8466001,3.053592 -6.8466001,6.84661 v 36.263473 a 4.2333333,4.2333333 0 0 1 4.2333301,4.23335 h 1.1777 a 1.058334,1.058334 0 0 1 1.05834,-1.05834 1.058334,1.058334 0 0 1 1.05833,1.05834 h 1.05833 a 1.0583339,1.0583339 0 0 1 1.05834,-1.05834 1.0583339,1.0583339 0 0 1 1.05833,1.05834 h 1.05833 a 1.0583339,1.0583339 0 0 1 1.05834,-1.05834 1.0583339,1.0583339 0 0 1 1.05833,1.05834 h 1.05833 a 1.0583339,1.0583339 0 0 1 1.05834,-1.05834 1.0583339,1.0583339 0 0 1 1.05833,1.05834 h 1.05833 a 1.0583338,1.0583338 0 0 1 1.05834,-1.05834 1.0583338,1.0583338 0 0 1 1.05833,1.05834 h 1.05833 a 1.0583338,1.0583338 0 0 1 1.05834,-1.05834 1.0583338,1.0583338 0 0 1 1.05833,1.05834 h 1.05833 a 1.0583338,1.0583338 0 0 1 1.05834,-1.05834 1.0583338,1.0583338 0 0 1 1.05833,1.05834 h 1.058331 a 1.0583338,1.0583338 0 0 1 1.058339,-1.05834 1.0583338,1.0583338 0 0 1 1.058849,1.05834 h 1.057812 a 1.0583337,1.0583337 0 0 1 1.058339,-1.05834 1.0583337,1.0583337 0 0 1 1.05833,1.05834 h 1.058331 a 1.0583337,1.0583337 0 0 1 1.058339,-1.05834 1.0583337,1.0583337 0 0 1 1.05833,1.05834 h 1.05885 a 1.0583337,1.0583337 0 0 1 1.05782,-1.05834 1.0583337,1.0583337 0 0 1 1.058849,1.05834 h 1.057812 a 1.0583337,1.0583337 0 0 1 1.058339,-1.05834 1.0583337,1.0583337 0 0 1 1.05833,1.05834 h 1.05885 a 1.0583336,1.0583336 0 0 1 1.05782,-1.05834 1.0583336,1.0583336 0 0 1 1.058849,1.05834 h 1.058331 a 1.0583336,1.0583336 0 0 1 1.05833,-1.05834 1.0583336,1.0583336 0 0 1 1.058339,1.05834 h 1.058331 a 1.0583336,1.0583336 0 0 1 1.05833,-1.05834 1.0583336,1.0583336 0 0 1 1.058339,1.05834 h 1.058331 a 1.0583336,1.0583336 0 0 1 1.05833,-1.05834 1.0583336,1.0583336 0 0 1 1.058341,1.05834 h 1.058329 a 1.0583335,1.0583335 0 0 1 1.05833,-1.05834 1.0583335,1.0583335 0 0 1 1.058341,1.05834 h 1.058328 a 1.0583335,1.0583335 0 0 1 1.058331,-1.05834 1.0583335,1.0583335 0 0 1 1.058341,1.05834 h 1.177698 a 4.2333333,4.2333333 0 0 1 4.233331,-4.23335 V 92.599577 c 0,-3.793018 -3.053591,-6.84661 -6.84661,-6.84661 z" />
  </g>
  <g
     inkscape:groupmode="layer"
     id="layer9"
     inkscape:label="header" />
  <g
     inkscape:groupmode="layer"
     id="layer8"
     inkscape:label="header text">
    <path
       id="path2015-7-7"
       style="fill:#ffc130;fill-opacity:1;stroke-width:0.41261"
       d="m 15.72282,-8.0229214 c -3.793023,0 -6.8466037,3.05359 -6.8466037,6.8466066 V 35.087151 a 4.2333333,4.2333333 0 0 1 4.2333317,4.233353 h 1.177701 a 1.058334,1.058334 0 0 1 1.05834,-1.058342 1.058334,1.058334 0 0 1 1.058331,1.058342 h 1.058331 a 1.0583339,1.0583339 0 0 1 1.05834,-1.058342 1.0583339,1.0583339 0 0 1 1.05833,1.058342 h 1.05833 a 1.0583339,1.0583339 0 0 1 1.05834,-1.058342 1.0583339,1.0583339 0 0 1 1.05833,1.058342 h 1.05833 a 1.0583339,1.0583339 0 0 1 1.05834,-1.058342 1.0583339,1.0583339 0 0 1 1.05833,1.058342 h 1.05833 a 1.0583338,1.0583338 0 0 1 1.05834,-1.058342 1.0583338,1.0583338 0 0 1 1.05833,1.058342 h 1.05833 a 1.0583338,1.0583338 0 0 1 1.05834,-1.058342 1.0583338,1.0583338 0 0 1 1.05833,1.058342 h 1.05833 a 1.0583338,1.0583338 0 0 1 1.05834,-1.058342 1.0583338,1.0583338 0 0 1 1.05833,1.058342 h 1.058331 a 1.0583338,1.0583338 0 0 1 1.058338,-1.058342 1.0583338,1.0583338 0 0 1 1.058852,1.058342 h 1.05781 a 1.0583337,1.0583337 0 0 1 1.058338,-1.058342 1.0583337,1.0583337 0 0 1 1.058331,1.058342 h 1.058331 a 1.0583337,1.0583337 0 0 1 1.058338,-1.058342 1.0583337,1.0583337 0 0 1 1.058331,1.058342 h 1.058849 a 1.0583337,1.0583337 0 0 1 1.05782,-1.058342 1.0583337,1.0583337 0 0 1 1.058852,1.058342 h 1.057809 a 1.0583337,1.0583337 0 0 1 1.058339,-1.058342 1.0583337,1.0583337 0 0 1 1.058331,1.058342 h 1.058849 a 1.0583336,1.0583336 0 0 1 1.05782,-1.058342 1.0583336,1.0583336 0 0 1 1.058852,1.058342 h 1.058328 a 1.0583336,1.0583336 0 0 1 1.058331,-1.058342 1.0583336,1.0583336 0 0 1 1.058341,1.058342 h 1.058328 a 1.0583336,1.0583336 0 0 1 1.058331,-1.058342 1.0583336,1.0583336 0 0 1 1.058341,1.058342 h 1.058328 a 1.0583336,1.0583336 0 0 1 1.058331,-1.058342 1.0583336,1.0583336 0 0 1 1.058341,1.058342 h 1.058328 a 1.0583335,1.0583335 0 0 1 1.058331,-1.058342 1.0583335,1.0583335 0 0 1 1.058341,1.058342 h 1.058328 a 1.0583335,1.0583335 0 0 1 1.058331,-1.058342 1.0583335,1.0583335 0 0 1 1.058341,1.058342 h 1.1777 A 4.2333333,4.2333333 0 0 1 75.79047,35.087151 V -1.1763148 c 0,-3.7930166 -3.053588,-6.8466066 -6.84661,-6.8466066 z" />
    <text
       xml:space="preserve"
       style="font-style:normal;font-variant:normal;font-weight:500;font-stretch:normal;font-size:10.5833px;line-height:0.85;font-family:Roboto;-inkscape-font-specification:'Roboto Medium';fill:#333333;stroke-width:0.264583"
       x="14.981085"
       y="25.025127"
       id="text3064"><tspan
         sodipodi:role="line"
         x="14.981085"
         y="25.025127"
         style="font-style:normal;font-variant:normal;font-weight:500;font-stretch:normal;font-size:10.5833px;font-family:Roboto;-inkscape-font-specification:'Roboto Medium';fill:#333333;stroke-width:0.264583"
         id="tspan1684">BEM VINDO</tspan></text>
    <text
       xml:space="preserve"
       style="font-weight:500;font-size:7.76111px;line-height:1.25;font-family:Roboto;-inkscape-font-specification:'Roboto Medium';fill:#333333;fill-opacity:1;stroke-width:0.264583"
       x="42.352291"
       y="60.558563"
       id="text1927"><tspan
         sodipodi:role="line"
         id="tspan1925"
         x="42.352291"
         y="60.558563"
         style="font-size:7.76111px;text-align:center;text-anchor:middle;fill:#333333;fill-opacity:1;stroke-width:0.264583">Acompanhar</tspan><tspan
         sodipodi:role="line"
         x="42.352291"
         y="70.259949"
         style="font-size:7.76111px;text-align:center;text-anchor:middle;fill:#333333;fill-opacity:1;stroke-width:0.264583"
         id="tspan1969">senha</tspan></text>
    <text
       xml:space="preserve"
       style="font-weight:500;font-size:7.76111px;line-height:1.25;font-family:Roboto;-inkscape-font-specification:'Roboto Medium';fill:#333333;fill-opacity:1;stroke-width:0.264583"
       x="44.078678"
       y="107.33282"
       id="text1967"><tspan
         sodipodi:role="line"
         id="tspan1965"
         x="44.078678"
         y="107.33282"
         style="font-size:7.76111px;text-align:center;text-anchor:middle;fill:#333333;fill-opacity:1;stroke-width:0.264583">Quero uma nova </tspan><tspan
         sodipodi:role="line"
         x="44.078678"
         y="117.0342"
         style="font-size:7.76111px;text-align:center;text-anchor:middle;fill:#333333;fill-opacity:1;stroke-width:0.264583"
         id="tspan1975">senha</tspan></text>
  </g>
  <g
     inkscape:groupmode="layer"
     id="layer2"
     inkscape:label="navbar">
    <text
       xml:space="preserve"
       style="font-weight:500;font-size:7.76111px;line-height:1.25;font-family:Roboto;-inkscape-font-specification:'Roboto Medium';fill:#333333;fill-opacity:1;stroke-width:0.264583"
       x="12.876964"
       y="148.36169"
       id="text1973"><tspan
         sodipodi:role="line"
         id="tspan1971"
         x="12.876964"
         y="148.36169"
         style="font-size:7.76111px;fill:#333333;fill-opacity:1;stroke-width:0.264583">Pegar uma senha</tspan></text>
    <rect
       style="fill:#f9f9f9;fill-opacity:1;stroke:none;stroke-width:0;stroke-miterlimit:4;stroke-dasharray:none;stroke-opacity:0"
       id="rect1978"
       width="84.666664"
       height="16.933332"
       x="9.2782602e-07"
       y="133.35002" />
    <g
       id="g4010">
      <rect
         style="fill:#666666;fill-opacity:1;stroke:none;stroke-width:0;stroke-miterlimit:4;stroke-dasharray:none;stroke-opacity:0"
         id="rect3979"
         width="12.7"
         height="2.1166666"
         x="63.090458"
         y="137.05424"
         rx="1.0583333"
         ry="1.0583333" />
      <rect
         style="fill:#666666;fill-opacity:1;stroke:none;stroke-width:0;stroke-miterlimit:4;stroke-dasharray:none;stroke-opacity:0"
         id="rect3983"
         width="10.583333"
         height="2.1166666"
         x="65.207123"
         y="140.75836"
         rx="1.0583333"
         ry="1.0583333" />
      <rect
         style="fill:#666666;fill-opacity:1;stroke:none;stroke-width:0;stroke-miterlimit:4;stroke-dasharray:none;stroke-opacity:0"
         id="rect3985"
         width="8.4666662"
         height="2.1166666"
         x="67.323792"
         y="144.46248"
         rx="1.0583333"
         ry="1.0583333" />
    </g>
  </g>
  <g
     inkscape:groupmode="layer"
     id="layer3"
     inkscape:label="offcanvas"
     style="opacity:1">
    <rect
       style="fill:#333333;fill-opacity:0.5;stroke-width:0;stroke-opacity:0"
       id="rect62"
       width="84.666664"
       height="150.28333"
       x="9.2782608e-07"
       y="1.1533315e-05" />
    <rect
       style="fill:#333333;fill-opacity:1;stroke-width:0;stroke-opacity:0"
       id="rect1726"
       width="58.208332"
       height="150.28333"
       x="9.2782608e-07"
       y="1.1533315e-05" />
    <text
       xml:space="preserve"
       style="font-weight:500;font-size:7.05556px;line-height:1.25;font-family:Roboto;-inkscape-font-specification:'Roboto Medium';stroke-width:0.264583"
       x="9.5021439"
       y="37.738136"
       id="text1730"><tspan
         sodipodi:role="line"
         id="tspan1728"
         x="9.5021439"
         y="37.738136"
         style="font-size:7.05556px;fill:#f9f9f9;stroke-width:0.264583">HOME</tspan></text>
    <text
       xml:space="preserve"
       style="font-weight:500;font-size:7.05556px;line-height:1.25;font-family:Roboto;-inkscape-font-specification:'Roboto Medium';stroke-width:0.264583"
       x="9.5021439"
       y="48.321472"
       id="text1734"><tspan
         sodipodi:role="line"
         id="tspan1732"
         x="9.5021439"
         y="48.321472"
         style="font-size:7.05556px;fill:#f9f9f9;stroke-width:0.264583">HISTORICO</tspan></text>
    <text
       xml:space="preserve"
       style="font-weight:500;font-size:7.05556px;line-height:1.25;font-family:Roboto;-inkscape-font-specification:'Roboto Medium';stroke-width:0.264583"
       x="9.5021439"
       y="58.904808"
       id="text1738"><tspan
         sodipodi:role="line"
         id="tspan1736"
         x="9.5021439"
         y="58.904808"
         style="font-size:7.05556px;fill:#f9f9f9;stroke-width:0.264583">PARCEIROS</tspan></text>
    <text
       xml:space="preserve"
       style="font-weight:500;font-size:7.05556px;line-height:1.25;font-family:Roboto;-inkscape-font-specification:'Roboto Medium';stroke-width:0.264583"
       x="9.5021439"
       y="69.488136"
       id="text1742"><tspan
         sodipodi:role="line"
         id="tspan1740"
         x="9.5021439"
         y="69.488136"
         style="font-size:7.05556px;fill:#f9f9f9;stroke-width:0.264583">PERFIL</tspan></text>
    <text
       xml:space="preserve"
       style="font-weight:500;font-size:7.05556px;line-height:1.25;font-family:Roboto;-inkscape-font-specification:'Roboto Medium';stroke-width:0.264583"
       x="9.5021439"
       y="80.071465"
       id="text1746"><tspan
         sodipodi:role="line"
         id="tspan1744"
         x="9.5021439"
         y="80.071465"
         style="font-size:7.05556px;fill:#f9f9f9;stroke-width:0.264583">SAIR</tspan></text>
  </g>
</svg>
